<svg width="491" height="647" viewBox="0 0 491 647" fill="none" xmlns="http://www.w3.org/2000/svg">
<g clip-path="url(#clip0_580_16508)">
<path d="M0 10C0 4.47716 4.47715 0 10 0H481C486.523 0 491 4.47715 491 10V637C491 642.523 486.523 647 481 647H10C4.47716 647 0 642.523 0 637V10Z" fill="#292D26"/>
<circle cx="445.5" cy="598.5" r="134.5" fill="white" fill-opacity="0.12"/>
<circle cx="352" cy="507" r="69" fill="#FFF9F9" fill-opacity="0.13"/>
<path d="M40.98 61.2C40.98 59.2773 41.4093 57.56 42.268 56.048C43.1453 54.5173 44.3307 53.332 45.824 52.492C47.336 51.6333 49.0253 51.204 50.892 51.204C53.076 51.204 54.9893 51.764 56.632 52.884C58.2747 54.004 59.4227 55.5533 60.076 57.532H55.568C55.12 56.5987 54.4853 55.8987 53.664 55.432C52.8613 54.9653 51.928 54.732 50.864 54.732C49.7253 54.732 48.708 55.0027 47.812 55.544C46.9347 56.0667 46.244 56.8133 45.74 57.784C45.2547 58.7547 45.012 59.8933 45.012 61.2C45.012 62.488 45.2547 63.6267 45.74 64.616C46.244 65.5867 46.9347 66.3427 47.812 66.884C48.708 67.4067 49.7253 67.668 50.864 67.668C51.928 67.668 52.8613 67.4347 53.664 66.968C54.4853 66.4827 55.12 65.7733 55.568 64.84H60.076C59.4227 66.8373 58.2747 68.396 56.632 69.516C55.008 70.6173 53.0947 71.168 50.892 71.168C49.0253 71.168 47.336 70.748 45.824 69.908C44.3307 69.0493 43.1453 67.864 42.268 66.352C41.4093 64.84 40.98 63.1227 40.98 61.2ZM70.3122 71.252C68.8189 71.252 67.4749 70.9253 66.2802 70.272C65.0855 69.6 64.1429 68.6573 63.4522 67.444C62.7802 66.2307 62.4442 64.8307 62.4442 63.244C62.4442 61.6573 62.7895 60.2573 63.4802 59.044C64.1895 57.8307 65.1509 56.8973 66.3642 56.244C67.5775 55.572 68.9309 55.236 70.4242 55.236C71.9175 55.236 73.2709 55.572 74.4842 56.244C75.6975 56.8973 76.6495 57.8307 77.3402 59.044C78.0495 60.2573 78.4042 61.6573 78.4042 63.244C78.4042 64.8307 78.0402 66.2307 77.3122 67.444C76.6029 68.6573 75.6322 69.6 74.4002 70.272C73.1869 70.9253 71.8242 71.252 70.3122 71.252ZM70.3122 67.836C71.0215 67.836 71.6842 67.668 72.3002 67.332C72.9349 66.9773 73.4389 66.4547 73.8122 65.764C74.1855 65.0733 74.3722 64.2333 74.3722 63.244C74.3722 61.7693 73.9802 60.64 73.1962 59.856C72.4309 59.0533 71.4882 58.652 70.3682 58.652C69.2482 58.652 68.3055 59.0533 67.5402 59.856C66.7935 60.64 66.4202 61.7693 66.4202 63.244C66.4202 64.7187 66.7842 65.8573 67.5122 66.66C68.2589 67.444 69.1922 67.836 70.3122 67.836ZM89.8757 55.264C91.7237 55.264 93.217 55.852 94.3557 57.028C95.4943 58.1853 96.0637 59.8093 96.0637 61.9V71H92.1437V62.432C92.1437 61.2 91.8357 60.2573 91.2197 59.604C90.6037 58.932 89.7637 58.596 88.6997 58.596C87.617 58.596 86.7583 58.932 86.1237 59.604C85.5077 60.2573 85.1997 61.2 85.1997 62.432V71H81.2797V55.488H85.1997V57.42C85.7223 56.748 86.385 56.2253 87.1877 55.852C88.009 55.46 88.905 55.264 89.8757 55.264ZM104.355 58.708V66.212C104.355 66.7347 104.477 67.1173 104.719 67.36C104.981 67.584 105.41 67.696 106.007 67.696H107.827V71H105.363C102.059 71 100.407 69.3947 100.407 66.184V58.708H98.5594V55.488H100.407V51.652H104.355V55.488H107.827V58.708H104.355ZM109.639 63.188C109.639 61.62 109.947 60.2293 110.563 59.016C111.198 57.8027 112.047 56.8693 113.111 56.216C114.194 55.5627 115.398 55.236 116.723 55.236C117.88 55.236 118.888 55.4693 119.747 55.936C120.624 56.4027 121.324 56.9907 121.847 57.7V55.488H125.795V71H121.847V68.732C121.343 69.46 120.643 70.0667 119.747 70.552C118.87 71.0187 117.852 71.252 116.695 71.252C115.388 71.252 114.194 70.916 113.111 70.244C112.047 69.572 111.198 68.6293 110.563 67.416C109.947 66.184 109.639 64.7747 109.639 63.188ZM121.847 63.244C121.847 62.292 121.66 61.48 121.287 60.808C120.914 60.1173 120.41 59.5947 119.775 59.24C119.14 58.8667 118.459 58.68 117.731 58.68C117.003 58.68 116.331 58.8573 115.715 59.212C115.099 59.5667 114.595 60.0893 114.203 60.78C113.83 61.452 113.643 62.2547 113.643 63.188C113.643 64.1213 113.83 64.9427 114.203 65.652C114.595 66.3427 115.099 66.8747 115.715 67.248C116.35 67.6213 117.022 67.808 117.731 67.808C118.459 67.808 119.14 67.6307 119.775 67.276C120.41 66.9027 120.914 66.38 121.287 65.708C121.66 65.0173 121.847 64.196 121.847 63.244ZM128.615 63.244C128.615 61.6387 128.942 60.2387 129.595 59.044C130.249 57.8307 131.154 56.8973 132.311 56.244C133.469 55.572 134.794 55.236 136.287 55.236C138.21 55.236 139.797 55.7213 141.047 56.692C142.317 57.644 143.166 58.988 143.595 60.724H139.367C139.143 60.052 138.761 59.5293 138.219 59.156C137.697 58.764 137.043 58.568 136.259 58.568C135.139 58.568 134.253 58.9787 133.599 59.8C132.946 60.6027 132.619 61.7507 132.619 63.244C132.619 64.7187 132.946 65.8667 133.599 66.688C134.253 67.4907 135.139 67.892 136.259 67.892C137.846 67.892 138.882 67.1827 139.367 65.764H143.595C143.166 67.444 142.317 68.7787 141.047 69.768C139.778 70.7573 138.191 71.252 136.287 71.252C134.794 71.252 133.469 70.9253 132.311 70.272C131.154 69.6 130.249 68.6667 129.595 67.472C128.942 66.2587 128.615 64.8493 128.615 63.244ZM151.031 58.708V66.212C151.031 66.7347 151.152 67.1173 151.395 67.36C151.656 67.584 152.086 67.696 152.683 67.696H154.503V71H152.039C148.735 71 147.083 69.3947 147.083 66.184V58.708H145.235V55.488H147.083V51.652H151.031V55.488H154.503V58.708H151.031ZM167.915 51.456V71H163.995V51.456H167.915ZM180.383 55.264C182.231 55.264 183.725 55.852 184.863 57.028C186.002 58.1853 186.571 59.8093 186.571 61.9V71H182.651V62.432C182.651 61.2 182.343 60.2573 181.727 59.604C181.111 58.932 180.271 58.596 179.207 58.596C178.125 58.596 177.266 58.932 176.631 59.604C176.015 60.2573 175.707 61.2 175.707 62.432V71H171.787V55.488H175.707V57.42C176.23 56.748 176.893 56.2253 177.695 55.852C178.517 55.46 179.413 55.264 180.383 55.264ZM197.411 58.708H194.695V71H190.719V58.708H188.955V55.488H190.719V54.704C190.719 52.8 191.261 51.4 192.343 50.504C193.426 49.608 195.059 49.188 197.243 49.244V52.548C196.291 52.5293 195.629 52.688 195.255 53.024C194.882 53.36 194.695 53.9667 194.695 54.844V55.488H197.411V58.708ZM206.84 71.252C205.346 71.252 204.002 70.9253 202.808 70.272C201.613 69.6 200.67 68.6573 199.98 67.444C199.308 66.2307 198.972 64.8307 198.972 63.244C198.972 61.6573 199.317 60.2573 200.008 59.044C200.717 57.8307 201.678 56.8973 202.892 56.244C204.105 55.572 205.458 55.236 206.952 55.236C208.445 55.236 209.798 55.572 211.012 56.244C212.225 56.8973 213.177 57.8307 213.868 59.044C214.577 60.2573 214.932 61.6573 214.932 63.244C214.932 64.8307 214.568 66.2307 213.84 67.444C213.13 68.6573 212.16 69.6 210.928 70.272C209.714 70.9253 208.352 71.252 206.84 71.252ZM206.84 67.836C207.549 67.836 208.212 67.668 208.828 67.332C209.462 66.9773 209.966 66.4547 210.34 65.764C210.713 65.0733 210.9 64.2333 210.9 63.244C210.9 61.7693 210.508 60.64 209.724 59.856C208.958 59.0533 208.016 58.652 206.896 58.652C205.776 58.652 204.833 59.0533 204.068 59.856C203.321 60.64 202.948 61.7693 202.948 63.244C202.948 64.7187 203.312 65.8573 204.04 66.66C204.786 67.444 205.72 67.836 206.84 67.836ZM221.727 57.896C222.231 57.0747 222.884 56.4307 223.687 55.964C224.508 55.4973 225.442 55.264 226.487 55.264V59.38H225.451C224.219 59.38 223.286 59.6693 222.651 60.248C222.035 60.8267 221.727 61.8347 221.727 63.272V71H217.807V55.488H221.727V57.896ZM248.391 55.264C250.295 55.264 251.826 55.852 252.983 57.028C254.159 58.1853 254.747 59.8093 254.747 61.9V71H250.827V62.432C250.827 61.2187 250.519 60.2947 249.903 59.66C249.287 59.0067 248.447 58.68 247.383 58.68C246.319 58.68 245.47 59.0067 244.835 59.66C244.219 60.2947 243.911 61.2187 243.911 62.432V71H239.991V62.432C239.991 61.2187 239.683 60.2947 239.067 59.66C238.451 59.0067 237.611 58.68 236.547 58.68C235.465 58.68 234.606 59.0067 233.971 59.66C233.355 60.2947 233.047 61.2187 233.047 62.432V71H229.127V55.488H233.047V57.364C233.551 56.7107 234.195 56.1973 234.979 55.824C235.782 55.4507 236.659 55.264 237.611 55.264C238.825 55.264 239.907 55.5253 240.859 56.048C241.811 56.552 242.549 57.28 243.071 58.232C243.575 57.336 244.303 56.6173 245.255 56.076C246.226 55.5347 247.271 55.264 248.391 55.264ZM257.459 63.188C257.459 61.62 257.767 60.2293 258.383 59.016C259.018 57.8027 259.867 56.8693 260.931 56.216C262.014 55.5627 263.218 55.236 264.543 55.236C265.7 55.236 266.708 55.4693 267.567 55.936C268.444 56.4027 269.144 56.9907 269.667 57.7V55.488H273.615V71H269.667V68.732C269.163 69.46 268.463 70.0667 267.567 70.552C266.69 71.0187 265.672 71.252 264.515 71.252C263.208 71.252 262.014 70.916 260.931 70.244C259.867 69.572 259.018 68.6293 258.383 67.416C257.767 66.184 257.459 64.7747 257.459 63.188ZM269.667 63.244C269.667 62.292 269.48 61.48 269.107 60.808C268.734 60.1173 268.23 59.5947 267.595 59.24C266.96 58.8667 266.279 58.68 265.551 58.68C264.823 58.68 264.151 58.8573 263.535 59.212C262.919 59.5667 262.415 60.0893 262.023 60.78C261.65 61.452 261.463 62.2547 261.463 63.188C261.463 64.1213 261.65 64.9427 262.023 65.652C262.415 66.3427 262.919 66.8747 263.535 67.248C264.17 67.6213 264.842 67.808 265.551 67.808C266.279 67.808 266.96 67.6307 267.595 67.276C268.23 66.9027 268.734 66.38 269.107 65.708C269.48 65.0173 269.667 64.196 269.667 63.244ZM282.008 58.708V66.212C282.008 66.7347 282.129 67.1173 282.372 67.36C282.633 67.584 283.062 67.696 283.66 67.696H285.48V71H283.016C279.712 71 278.06 69.3947 278.06 66.184V58.708H276.212V55.488H278.06V51.652H282.008V55.488H285.48V58.708H282.008ZM290.287 53.64C289.597 53.64 289.018 53.4253 288.551 52.996C288.103 52.548 287.879 51.9973 287.879 51.344C287.879 50.6907 288.103 50.1493 288.551 49.72C289.018 49.272 289.597 49.048 290.287 49.048C290.978 49.048 291.547 49.272 291.995 49.72C292.462 50.1493 292.695 50.6907 292.695 51.344C292.695 51.9973 292.462 52.548 291.995 52.996C291.547 53.4253 290.978 53.64 290.287 53.64ZM292.219 55.488V71H288.299V55.488H292.219ZM302.98 71.252C301.487 71.252 300.143 70.9253 298.948 70.272C297.753 69.6 296.811 68.6573 296.12 67.444C295.448 66.2307 295.112 64.8307 295.112 63.244C295.112 61.6573 295.457 60.2573 296.148 59.044C296.857 57.8307 297.819 56.8973 299.032 56.244C300.245 55.572 301.599 55.236 303.092 55.236C304.585 55.236 305.939 55.572 307.152 56.244C308.365 56.8973 309.317 57.8307 310.008 59.044C310.717 60.2573 311.072 61.6573 311.072 63.244C311.072 64.8307 310.708 66.2307 309.98 67.444C309.271 68.6573 308.3 69.6 307.068 70.272C305.855 70.9253 304.492 71.252 302.98 71.252ZM302.98 67.836C303.689 67.836 304.352 67.668 304.968 67.332C305.603 66.9773 306.107 66.4547 306.48 65.764C306.853 65.0733 307.04 64.2333 307.04 63.244C307.04 61.7693 306.648 60.64 305.864 59.856C305.099 59.0533 304.156 58.652 303.036 58.652C301.916 58.652 300.973 59.0533 300.208 59.856C299.461 60.64 299.088 61.7693 299.088 63.244C299.088 64.7187 299.452 65.8573 300.18 66.66C300.927 67.444 301.86 67.836 302.98 67.836ZM322.544 55.264C324.392 55.264 325.885 55.852 327.024 57.028C328.162 58.1853 328.732 59.8093 328.732 61.9V71H324.812V62.432C324.812 61.2 324.504 60.2573 323.888 59.604C323.272 58.932 322.432 58.596 321.368 58.596C320.285 58.596 319.426 58.932 318.792 59.604C318.176 60.2573 317.868 61.2 317.868 62.432V71H313.948V55.488H317.868V57.42C318.39 56.748 319.053 56.2253 319.856 55.852C320.677 55.46 321.573 55.264 322.544 55.264Z" fill="white"/>
<path d="M52 375.5C49.8128 375.503 47.7158 376.373 46.1692 377.919C44.6226 379.466 43.7526 381.563 43.75 383.75C43.7474 385.537 44.3312 387.276 45.412 388.7C45.412 388.7 45.637 388.996 45.6738 389.039L52 396.5L58.3293 389.035C58.3623 388.996 58.588 388.7 58.588 388.7L58.5888 388.698C59.669 387.275 60.2526 385.537 60.25 383.75C60.2474 381.563 59.3774 379.466 57.8308 377.919C56.2842 376.373 54.1873 375.503 52 375.5ZM52 386.75C51.4067 386.75 50.8266 386.574 50.3333 386.244C49.84 385.915 49.4554 385.446 49.2284 384.898C49.0013 384.35 48.9419 383.747 49.0577 383.165C49.1734 382.583 49.4591 382.048 49.8787 381.629C50.2982 381.209 50.8328 380.923 51.4147 380.808C51.9967 380.692 52.5999 380.751 53.1481 380.978C53.6962 381.205 54.1648 381.59 54.4944 382.083C54.8241 382.577 55 383.157 55 383.75C54.999 384.545 54.6826 385.308 54.1202 385.87C53.5578 386.433 52.7954 386.749 52 386.75Z" fill="white"/>
<path d="M60.0002 236.999H62.0002C62.0002 231.869 58.1272 228 52.9902 228V230C57.0522 230 60.0002 232.943 60.0002 236.999Z" fill="white"/>
<path d="M53.0003 234C55.1033 234 56.0003 234.897 56.0003 237H58.0003C58.0003 233.775 56.2253 232 53.0003 232V234ZM56.4223 239.443C56.2301 239.268 55.9776 239.175 55.7181 239.183C55.4585 239.191 55.2123 239.3 55.0313 239.486L52.6383 241.947C52.0623 241.837 50.9043 241.476 49.7123 240.287C48.5203 239.094 48.1593 237.933 48.0523 237.361L50.5113 234.967C50.6977 234.786 50.8064 234.54 50.8144 234.28C50.8225 234.021 50.7292 233.768 50.5543 233.576L46.8593 229.513C46.6843 229.32 46.4412 229.203 46.1814 229.187C45.9217 229.171 45.6659 229.257 45.4683 229.426L43.2983 231.287C43.1254 231.461 43.0222 231.691 43.0083 231.936C42.9933 232.186 42.7073 238.108 47.2993 242.702C51.3053 246.707 56.3233 247 57.7053 247C57.9073 247 58.0313 246.994 58.0643 246.992C58.3088 246.978 58.5396 246.875 58.7123 246.701L60.5723 244.53C60.7417 244.333 60.8276 244.077 60.8115 243.817C60.7954 243.557 60.6788 243.314 60.4863 243.139L56.4223 239.443Z" fill="white"/>
<path d="M97.112 233.568L92.664 244H91.192L95.704 233.712H89.528V232.464H97.112V233.568ZM100.838 237.984C100.241 237.749 99.7824 237.408 99.4624 236.96C99.1424 236.512 98.9824 235.968 98.9824 235.328C98.9824 234.752 99.1264 234.235 99.4144 233.776C99.7024 233.307 100.129 232.939 100.694 232.672C101.27 232.395 101.964 232.256 102.774 232.256C103.585 232.256 104.273 232.395 104.838 232.672C105.414 232.939 105.846 233.307 106.134 233.776C106.433 234.235 106.582 234.752 106.582 235.328C106.582 235.947 106.417 236.491 106.086 236.96C105.756 237.419 105.302 237.76 104.726 237.984C105.388 238.187 105.91 238.544 106.294 239.056C106.689 239.557 106.886 240.165 106.886 240.88C106.886 241.573 106.716 242.181 106.374 242.704C106.033 243.216 105.548 243.616 104.918 243.904C104.3 244.181 103.585 244.32 102.774 244.32C101.964 244.32 101.249 244.181 100.63 243.904C100.022 243.616 99.5477 243.216 99.2064 242.704C98.865 242.181 98.6944 241.573 98.6944 240.88C98.6944 240.165 98.8864 239.552 99.2704 239.04C99.6544 238.528 100.177 238.176 100.838 237.984ZM105.174 235.504C105.174 234.853 104.961 234.352 104.534 234C104.108 233.648 103.521 233.472 102.774 233.472C102.038 233.472 101.457 233.648 101.03 234C100.604 234.352 100.39 234.859 100.39 235.52C100.39 236.117 100.609 236.597 101.046 236.96C101.494 237.323 102.07 237.504 102.774 237.504C103.489 237.504 104.065 237.323 104.502 236.96C104.95 236.587 105.174 236.101 105.174 235.504ZM102.774 238.624C101.985 238.624 101.34 238.811 100.838 239.184C100.337 239.547 100.086 240.096 100.086 240.832C100.086 241.515 100.326 242.064 100.806 242.48C101.297 242.896 101.953 243.104 102.774 243.104C103.596 243.104 104.246 242.896 104.726 242.48C105.206 242.064 105.446 241.515 105.446 240.832C105.446 240.117 105.201 239.573 104.71 239.2C104.22 238.816 103.574 238.624 102.774 238.624ZM112.702 233.76V232.432H115.71V244H114.238V233.76H112.702ZM118.211 238.096C118.211 236.261 118.509 234.832 119.107 233.808C119.704 232.773 120.749 232.256 122.243 232.256C123.725 232.256 124.765 232.773 125.363 233.808C125.96 234.832 126.259 236.261 126.259 238.096C126.259 239.963 125.96 241.413 125.363 242.448C124.765 243.483 123.725 244 122.243 244C120.749 244 119.704 243.483 119.107 242.448C118.509 241.413 118.211 239.963 118.211 238.096ZM124.819 238.096C124.819 237.168 124.755 236.384 124.627 235.744C124.509 235.093 124.259 234.571 123.875 234.176C123.501 233.781 122.957 233.584 122.243 233.584C121.517 233.584 120.963 233.781 120.579 234.176C120.205 234.571 119.955 235.093 119.827 235.744C119.709 236.384 119.651 237.168 119.651 238.096C119.651 239.056 119.709 239.861 119.827 240.512C119.955 241.163 120.205 241.685 120.579 242.08C120.963 242.475 121.517 242.672 122.243 242.672C122.957 242.672 123.501 242.475 123.875 242.08C124.259 241.685 124.509 241.163 124.627 240.512C124.755 239.861 124.819 239.056 124.819 238.096ZM134.706 235.184C134.471 234 133.74 233.408 132.514 233.408C131.564 233.408 130.855 233.776 130.386 234.512C129.916 235.237 129.687 236.437 129.698 238.112C129.943 237.557 130.348 237.125 130.914 236.816C131.49 236.496 132.13 236.336 132.834 236.336C133.932 236.336 134.807 236.677 135.458 237.36C136.119 238.043 136.45 238.987 136.45 240.192C136.45 240.917 136.306 241.568 136.018 242.144C135.74 242.72 135.314 243.179 134.738 243.52C134.172 243.861 133.484 244.032 132.674 244.032C131.575 244.032 130.716 243.787 130.098 243.296C129.479 242.805 129.047 242.128 128.802 241.264C128.556 240.4 128.434 239.333 128.434 238.064C128.434 234.149 129.799 232.192 132.53 232.192C133.575 232.192 134.396 232.475 134.994 233.04C135.591 233.605 135.943 234.32 136.05 235.184H134.706ZM132.53 237.568C132.071 237.568 131.639 237.664 131.234 237.856C130.828 238.037 130.498 238.32 130.242 238.704C129.996 239.077 129.874 239.536 129.874 240.08C129.874 240.891 130.108 241.552 130.578 242.064C131.047 242.565 131.719 242.816 132.594 242.816C133.34 242.816 133.932 242.587 134.37 242.128C134.818 241.659 135.042 241.029 135.042 240.24C135.042 239.408 134.828 238.757 134.402 238.288C133.975 237.808 133.351 237.568 132.53 237.568ZM144.792 237.984C144.194 237.749 143.736 237.408 143.416 236.96C143.096 236.512 142.936 235.968 142.936 235.328C142.936 234.752 143.08 234.235 143.368 233.776C143.656 233.307 144.082 232.939 144.648 232.672C145.224 232.395 145.917 232.256 146.728 232.256C147.538 232.256 148.226 232.395 148.792 232.672C149.368 232.939 149.8 233.307 150.088 233.776C150.386 234.235 150.536 234.752 150.536 235.328C150.536 235.947 150.37 236.491 150.04 236.96C149.709 237.419 149.256 237.76 148.68 237.984C149.341 238.187 149.864 238.544 150.248 239.056C150.642 239.557 150.84 240.165 150.84 240.88C150.84 241.573 150.669 242.181 150.328 242.704C149.986 243.216 149.501 243.616 148.872 243.904C148.253 244.181 147.538 244.32 146.728 244.32C145.917 244.32 145.202 244.181 144.584 243.904C143.976 243.616 143.501 243.216 143.16 242.704C142.818 242.181 142.648 241.573 142.648 240.88C142.648 240.165 142.84 239.552 143.224 239.04C143.607 238.528 144.13 238.176 144.792 237.984ZM149.128 235.504C149.128 234.853 148.914 234.352 148.488 234C148.061 233.648 147.474 233.472 146.728 233.472C145.992 233.472 145.41 233.648 144.984 234C144.557 234.352 144.344 234.859 144.344 235.52C144.344 236.117 144.562 236.597 145 236.96C145.448 237.323 146.024 237.504 146.728 237.504C147.442 237.504 148.018 237.323 148.456 236.96C148.904 236.587 149.128 236.101 149.128 235.504ZM146.728 238.624C145.938 238.624 145.293 238.811 144.792 239.184C144.29 239.547 144.039 240.096 144.039 240.832C144.039 241.515 144.28 242.064 144.76 242.48C145.25 242.896 145.906 243.104 146.728 243.104C147.549 243.104 148.2 242.896 148.68 242.48C149.16 242.064 149.4 241.515 149.4 240.832C149.4 240.117 149.154 239.573 148.664 239.2C148.173 238.816 147.528 238.624 146.728 238.624ZM152.597 242.832C153.952 241.744 155.013 240.853 155.781 240.16C156.549 239.456 157.195 238.725 157.717 237.968C158.251 237.2 158.517 236.448 158.517 235.712C158.517 235.019 158.347 234.475 158.005 234.08C157.675 233.675 157.136 233.472 156.389 233.472C155.664 233.472 155.099 233.701 154.693 234.16C154.299 234.608 154.085 235.211 154.053 235.968H152.645C152.688 234.773 153.051 233.851 153.733 233.2C154.416 232.549 155.296 232.224 156.373 232.224C157.472 232.224 158.341 232.528 158.981 233.136C159.632 233.744 159.957 234.581 159.957 235.648C159.957 236.533 159.691 237.397 159.157 238.24C158.635 239.072 158.037 239.808 157.365 240.448C156.693 241.077 155.835 241.813 154.789 242.656H160.293V243.872H152.597V242.832ZM168.114 240.896C168.221 241.504 168.466 241.973 168.85 242.304C169.245 242.635 169.773 242.8 170.434 242.8C171.319 242.8 171.97 242.453 172.386 241.76C172.813 241.067 173.015 239.899 172.994 238.256C172.77 238.736 172.397 239.115 171.874 239.392C171.351 239.659 170.77 239.792 170.13 239.792C169.415 239.792 168.775 239.648 168.21 239.36C167.655 239.061 167.218 238.629 166.898 238.064C166.578 237.499 166.418 236.816 166.418 236.016C166.418 234.875 166.749 233.957 167.41 233.264C168.071 232.56 169.01 232.208 170.226 232.208C171.719 232.208 172.765 232.693 173.362 233.664C173.97 234.635 174.274 236.08 174.274 238C174.274 239.344 174.151 240.453 173.906 241.328C173.671 242.203 173.266 242.869 172.69 243.328C172.125 243.787 171.346 244.016 170.354 244.016C169.266 244.016 168.418 243.723 167.81 243.136C167.202 242.549 166.855 241.803 166.77 240.896H168.114ZM170.37 238.56C171.085 238.56 171.671 238.341 172.13 237.904C172.589 237.456 172.818 236.853 172.818 236.096C172.818 235.296 172.594 234.651 172.146 234.16C171.698 233.669 171.069 233.424 170.258 233.424C169.511 233.424 168.914 233.659 168.466 234.128C168.029 234.597 167.81 235.216 167.81 235.984C167.81 236.763 168.029 237.387 168.466 237.856C168.903 238.325 169.538 238.56 170.37 238.56ZM178.432 237.984C177.835 237.749 177.376 237.408 177.056 236.96C176.736 236.512 176.576 235.968 176.576 235.328C176.576 234.752 176.72 234.235 177.008 233.776C177.296 233.307 177.723 232.939 178.288 232.672C178.864 232.395 179.557 232.256 180.368 232.256C181.179 232.256 181.867 232.395 182.432 232.672C183.008 232.939 183.44 233.307 183.728 233.776C184.027 234.235 184.176 234.752 184.176 235.328C184.176 235.947 184.011 236.491 183.68 236.96C183.349 237.419 182.896 237.76 182.32 237.984C182.981 238.187 183.504 238.544 183.888 239.056C184.283 239.557 184.48 240.165 184.48 240.88C184.48 241.573 184.309 242.181 183.968 242.704C183.627 243.216 183.141 243.616 182.512 243.904C181.893 244.181 181.179 244.32 180.368 244.32C179.557 244.32 178.843 244.181 178.224 243.904C177.616 243.616 177.141 243.216 176.8 242.704C176.459 242.181 176.288 241.573 176.288 240.88C176.288 240.165 176.48 239.552 176.864 239.04C177.248 238.528 177.771 238.176 178.432 237.984ZM182.768 235.504C182.768 234.853 182.555 234.352 182.128 234C181.701 233.648 181.115 233.472 180.368 233.472C179.632 233.472 179.051 233.648 178.624 234C178.197 234.352 177.984 234.859 177.984 235.52C177.984 236.117 178.203 236.597 178.64 236.96C179.088 237.323 179.664 237.504 180.368 237.504C181.083 237.504 181.659 237.323 182.096 236.96C182.544 236.587 182.768 236.101 182.768 235.504ZM180.368 238.624C179.579 238.624 178.933 238.811 178.432 239.184C177.931 239.547 177.68 240.096 177.68 240.832C177.68 241.515 177.92 242.064 178.4 242.48C178.891 242.896 179.547 243.104 180.368 243.104C181.189 243.104 181.84 242.896 182.32 242.48C182.8 242.064 183.04 241.515 183.04 240.832C183.04 240.117 182.795 239.573 182.304 239.2C181.813 238.816 181.168 238.624 180.368 238.624Z" fill="white"/>
<path d="M62 304H42V320H62V304ZM60 308L52 313L44 308V306L52 311L60 306V308Z" fill="white"/>
<path d="M93.496 316.656L96.216 309.232H97.768L94.328 318H92.632L89.192 309.232H90.76L93.496 316.656ZM107.201 313.28C107.201 313.557 107.185 313.851 107.153 314.16H100.145C100.198 315.024 100.491 315.701 101.025 316.192C101.569 316.672 102.225 316.912 102.993 316.912C103.622 316.912 104.145 316.768 104.561 316.48C104.987 316.181 105.286 315.787 105.457 315.296H107.025C106.79 316.139 106.321 316.827 105.617 317.36C104.913 317.883 104.038 318.144 102.993 318.144C102.161 318.144 101.414 317.957 100.753 317.584C100.102 317.211 99.5901 316.683 99.2168 316C98.8434 315.307 98.6568 314.507 98.6568 313.6C98.6568 312.693 98.8381 311.899 99.2008 311.216C99.5634 310.533 100.07 310.011 100.721 309.648C101.382 309.275 102.139 309.088 102.993 309.088C103.825 309.088 104.561 309.269 105.201 309.632C105.841 309.995 106.331 310.496 106.673 311.136C107.025 311.765 107.201 312.48 107.201 313.28ZM105.697 312.976C105.697 312.421 105.574 311.947 105.329 311.552C105.083 311.147 104.747 310.843 104.321 310.64C103.905 310.427 103.441 310.32 102.929 310.32C102.193 310.32 101.563 310.555 101.041 311.024C100.529 311.493 100.235 312.144 100.161 312.976H105.697ZM110.579 310.656C110.835 310.155 111.197 309.765 111.667 309.488C112.147 309.211 112.728 309.072 113.411 309.072V310.576H113.027C111.395 310.576 110.579 311.461 110.579 313.232V318H109.123V309.232H110.579V310.656ZM114.547 313.584C114.547 312.688 114.729 311.904 115.091 311.232C115.454 310.549 115.95 310.021 116.579 309.648C117.219 309.275 117.934 309.088 118.723 309.088C119.406 309.088 120.041 309.248 120.627 309.568C121.214 309.877 121.662 310.288 121.971 310.8V306.16H123.443V318H121.971V316.352C121.683 316.875 121.257 317.307 120.691 317.648C120.126 317.979 119.465 318.144 118.707 318.144C117.929 318.144 117.219 317.952 116.579 317.568C115.95 317.184 115.454 316.645 115.091 315.952C114.729 315.259 114.547 314.469 114.547 313.584ZM121.971 313.6C121.971 312.939 121.838 312.363 121.571 311.872C121.305 311.381 120.942 311.008 120.483 310.752C120.035 310.485 119.539 310.352 118.995 310.352C118.451 310.352 117.955 310.48 117.507 310.736C117.059 310.992 116.702 311.365 116.435 311.856C116.169 312.347 116.035 312.923 116.035 313.584C116.035 314.256 116.169 314.843 116.435 315.344C116.702 315.835 117.059 316.213 117.507 316.48C117.955 316.736 118.451 316.864 118.995 316.864C119.539 316.864 120.035 316.736 120.483 316.48C120.942 316.213 121.305 315.835 121.571 315.344C121.838 314.843 121.971 314.261 121.971 313.6ZM133.68 309.232V318H132.224V316.704C131.947 317.152 131.557 317.504 131.056 317.76C130.565 318.005 130.021 318.128 129.424 318.128C128.741 318.128 128.128 317.989 127.584 317.712C127.04 317.424 126.608 316.997 126.288 316.432C125.979 315.867 125.824 315.179 125.824 314.368V309.232H127.264V314.176C127.264 315.04 127.483 315.707 127.92 316.176C128.357 316.635 128.955 316.864 129.712 316.864C130.491 316.864 131.104 316.624 131.552 316.144C132 315.664 132.224 314.965 132.224 314.048V309.232H133.68ZM137.594 310.656C137.85 310.155 138.213 309.765 138.682 309.488C139.162 309.211 139.744 309.072 140.426 309.072V310.576H140.042C138.41 310.576 137.594 311.461 137.594 313.232V318H136.138V309.232H137.594V310.656ZM150.107 313.28C150.107 313.557 150.091 313.851 150.059 314.16H143.051C143.104 315.024 143.398 315.701 143.931 316.192C144.475 316.672 145.131 316.912 145.899 316.912C146.528 316.912 147.051 316.768 147.467 316.48C147.894 316.181 148.192 315.787 148.363 315.296H149.931C149.696 316.139 149.227 316.827 148.523 317.36C147.819 317.883 146.944 318.144 145.899 318.144C145.067 318.144 144.32 317.957 143.659 317.584C143.008 317.211 142.496 316.683 142.123 316C141.75 315.307 141.563 314.507 141.563 313.6C141.563 312.693 141.744 311.899 142.107 311.216C142.47 310.533 142.976 310.011 143.627 309.648C144.288 309.275 145.046 309.088 145.899 309.088C146.731 309.088 147.467 309.269 148.107 309.632C148.747 309.995 149.238 310.496 149.579 311.136C149.931 311.765 150.107 312.48 150.107 313.28ZM148.603 312.976C148.603 312.421 148.48 311.947 148.235 311.552C147.99 311.147 147.654 310.843 147.227 310.64C146.811 310.427 146.347 310.32 145.835 310.32C145.099 310.32 144.47 310.555 143.947 311.024C143.435 311.493 143.142 312.144 143.067 312.976H148.603ZM155.133 318.144C154.461 318.144 153.858 318.032 153.325 317.808C152.792 317.573 152.37 317.253 152.061 316.848C151.752 316.432 151.581 315.957 151.549 315.424H153.053C153.096 315.861 153.298 316.219 153.661 316.496C154.034 316.773 154.52 316.912 155.117 316.912C155.672 316.912 156.109 316.789 156.429 316.544C156.749 316.299 156.909 315.989 156.909 315.616C156.909 315.232 156.738 314.949 156.397 314.768C156.056 314.576 155.528 314.389 154.813 314.208C154.162 314.037 153.629 313.867 153.213 313.696C152.808 313.515 152.456 313.253 152.157 312.912C151.869 312.56 151.725 312.101 151.725 311.536C151.725 311.088 151.858 310.677 152.125 310.304C152.392 309.931 152.77 309.637 153.261 309.424C153.752 309.2 154.312 309.088 154.941 309.088C155.912 309.088 156.696 309.333 157.293 309.824C157.89 310.315 158.21 310.987 158.253 311.84H156.797C156.765 311.381 156.578 311.013 156.237 310.736C155.906 310.459 155.458 310.32 154.893 310.32C154.37 310.32 153.954 310.432 153.645 310.656C153.336 310.88 153.181 311.173 153.181 311.536C153.181 311.824 153.272 312.064 153.453 312.256C153.645 312.437 153.88 312.587 154.157 312.704C154.445 312.811 154.84 312.933 155.341 313.072C155.97 313.243 156.482 313.413 156.877 313.584C157.272 313.744 157.608 313.989 157.885 314.32C158.173 314.651 158.322 315.083 158.333 315.616C158.333 316.096 158.2 316.528 157.933 316.912C157.666 317.296 157.288 317.6 156.797 317.824C156.317 318.037 155.762 318.144 155.133 318.144ZM168.388 313.28C168.388 313.557 168.372 313.851 168.34 314.16H161.332C161.386 315.024 161.679 315.701 162.212 316.192C162.756 316.672 163.412 316.912 164.18 316.912C164.81 316.912 165.332 316.768 165.748 316.48C166.175 316.181 166.474 315.787 166.644 315.296H168.212C167.978 316.139 167.508 316.827 166.804 317.36C166.1 317.883 165.226 318.144 164.18 318.144C163.348 318.144 162.602 317.957 161.94 317.584C161.29 317.211 160.778 316.683 160.404 316C160.031 315.307 159.844 314.507 159.844 313.6C159.844 312.693 160.026 311.899 160.388 311.216C160.751 310.533 161.258 310.011 161.908 309.648C162.57 309.275 163.327 309.088 164.18 309.088C165.012 309.088 165.748 309.269 166.388 309.632C167.028 309.995 167.519 310.496 167.86 311.136C168.212 311.765 168.388 312.48 168.388 313.28ZM166.884 312.976C166.884 312.421 166.762 311.947 166.516 311.552C166.271 311.147 165.935 310.843 165.508 310.64C165.092 310.427 164.628 310.32 164.116 310.32C163.38 310.32 162.751 310.555 162.228 311.024C161.716 311.493 161.423 312.144 161.348 312.976H166.884ZM174.582 309.072C175.649 309.072 176.513 309.397 177.174 310.048C177.835 310.688 178.166 311.616 178.166 312.832V318H176.726V313.04C176.726 312.165 176.507 311.499 176.07 311.04C175.633 310.571 175.035 310.336 174.278 310.336C173.51 310.336 172.897 310.576 172.438 311.056C171.99 311.536 171.766 312.235 171.766 313.152V318H170.31V309.232H171.766V310.48C172.054 310.032 172.443 309.685 172.934 309.44C173.435 309.195 173.985 309.072 174.582 309.072ZM188.545 313.28C188.545 313.557 188.529 313.851 188.497 314.16H181.489C181.542 315.024 181.835 315.701 182.369 316.192C182.913 316.672 183.569 316.912 184.337 316.912C184.966 316.912 185.489 316.768 185.905 316.48C186.331 316.181 186.63 315.787 186.801 315.296H188.369C188.134 316.139 187.665 316.827 186.961 317.36C186.257 317.883 185.382 318.144 184.337 318.144C183.505 318.144 182.758 317.957 182.097 317.584C181.446 317.211 180.934 316.683 180.561 316C180.187 315.307 180.001 314.507 180.001 313.6C180.001 312.693 180.182 311.899 180.545 311.216C180.907 310.533 181.414 310.011 182.065 309.648C182.726 309.275 183.483 309.088 184.337 309.088C185.169 309.088 185.905 309.269 186.545 309.632C187.185 309.995 187.675 310.496 188.017 311.136C188.369 311.765 188.545 312.48 188.545 313.28ZM187.041 312.976C187.041 312.421 186.918 311.947 186.673 311.552C186.427 311.147 186.091 310.843 185.665 310.64C185.249 310.427 184.785 310.32 184.273 310.32C183.537 310.32 182.907 310.555 182.385 311.024C181.873 311.493 181.579 312.144 181.505 312.976H187.041ZM194.082 309.088C194.84 309.088 195.501 309.253 196.066 309.584C196.642 309.915 197.069 310.331 197.346 310.832V309.232H198.818V318.192C198.818 318.992 198.648 319.701 198.306 320.32C197.965 320.949 197.474 321.44 196.834 321.792C196.205 322.144 195.469 322.32 194.626 322.32C193.474 322.32 192.514 322.048 191.746 321.504C190.978 320.96 190.525 320.219 190.386 319.28H191.826C191.986 319.813 192.317 320.24 192.818 320.56C193.32 320.891 193.922 321.056 194.626 321.056C195.426 321.056 196.077 320.805 196.578 320.304C197.09 319.803 197.346 319.099 197.346 318.192V316.352C197.058 316.864 196.632 317.291 196.066 317.632C195.501 317.973 194.84 318.144 194.082 318.144C193.304 318.144 192.594 317.952 191.954 317.568C191.325 317.184 190.829 316.645 190.466 315.952C190.104 315.259 189.922 314.469 189.922 313.584C189.922 312.688 190.104 311.904 190.466 311.232C190.829 310.549 191.325 310.021 191.954 309.648C192.594 309.275 193.304 309.088 194.082 309.088ZM197.346 313.6C197.346 312.939 197.213 312.363 196.946 311.872C196.68 311.381 196.317 311.008 195.858 310.752C195.41 310.485 194.914 310.352 194.37 310.352C193.826 310.352 193.33 310.48 192.882 310.736C192.434 310.992 192.077 311.365 191.81 311.856C191.544 312.347 191.41 312.923 191.41 313.584C191.41 314.256 191.544 314.843 191.81 315.344C192.077 315.835 192.434 316.213 192.882 316.48C193.33 316.736 193.826 316.864 194.37 316.864C194.914 316.864 195.41 316.736 195.858 316.48C196.317 316.213 196.68 315.835 196.946 315.344C197.213 314.843 197.346 314.261 197.346 313.6ZM200.735 313.584C200.735 312.688 200.916 311.904 201.279 311.232C201.642 310.549 202.138 310.021 202.767 309.648C203.407 309.275 204.116 309.088 204.895 309.088C205.663 309.088 206.33 309.253 206.895 309.584C207.46 309.915 207.882 310.331 208.159 310.832V309.232H209.631V318H208.159V316.368C207.871 316.88 207.439 317.307 206.863 317.648C206.298 317.979 205.636 318.144 204.879 318.144C204.1 318.144 203.396 317.952 202.767 317.568C202.138 317.184 201.642 316.645 201.279 315.952C200.916 315.259 200.735 314.469 200.735 313.584ZM208.159 313.6C208.159 312.939 208.026 312.363 207.759 311.872C207.492 311.381 207.13 311.008 206.671 310.752C206.223 310.485 205.727 310.352 205.183 310.352C204.639 310.352 204.143 310.48 203.695 310.736C203.247 310.992 202.89 311.365 202.623 311.856C202.356 312.347 202.223 312.923 202.223 313.584C202.223 314.256 202.356 314.843 202.623 315.344C202.89 315.835 203.247 316.213 203.695 316.48C204.143 316.736 204.639 316.864 205.183 316.864C205.727 316.864 206.223 316.736 206.671 316.48C207.13 316.213 207.492 315.835 207.759 315.344C208.026 314.843 208.159 314.261 208.159 313.6ZM213.547 306.16V318H212.091V306.16H213.547ZM224.029 307.744C225.213 307.744 226.242 307.968 227.117 308.416C227.992 308.864 228.664 309.493 229.133 310.304C229.602 311.104 229.837 312.032 229.837 313.088C229.837 313.931 229.698 314.741 229.421 315.52C229.144 316.288 228.738 316.912 228.205 317.392C227.682 317.872 227.069 318.112 226.365 318.112C225.832 318.112 225.421 317.979 225.133 317.712C224.845 317.445 224.68 317.083 224.637 316.624C224.306 317.083 223.885 317.445 223.373 317.712C222.872 317.979 222.338 318.112 221.773 318.112C220.962 318.112 220.322 317.867 219.853 317.376C219.394 316.875 219.165 316.203 219.165 315.36C219.165 314.56 219.33 313.813 219.661 313.12C220.002 312.427 220.472 311.872 221.069 311.456C221.666 311.029 222.344 310.816 223.101 310.816C224.114 310.816 224.797 311.2 225.149 311.968L225.325 310.976H226.589L225.789 315.6C225.757 315.803 225.741 315.989 225.741 316.16C225.741 316.8 226.024 317.12 226.589 317.12C227.016 317.12 227.384 316.917 227.693 316.512C228.013 316.107 228.253 315.6 228.413 314.992C228.573 314.373 228.653 313.765 228.653 313.168C228.653 311.771 228.232 310.688 227.389 309.92C226.557 309.152 225.378 308.768 223.853 308.768C222.584 308.768 221.437 309.077 220.413 309.696C219.4 310.304 218.605 311.141 218.029 312.208C217.453 313.275 217.165 314.453 217.165 315.744C217.154 317.152 217.576 318.235 218.429 318.992C219.282 319.76 220.466 320.144 221.981 320.144C222.984 320.144 223.869 319.963 224.637 319.6L224.829 320.592C223.88 320.987 222.834 321.184 221.693 321.184C220.552 321.184 219.544 320.965 218.669 320.528C217.805 320.101 217.133 319.483 216.653 318.672C216.184 317.872 215.949 316.939 215.949 315.872C215.949 314.368 216.296 312.997 216.989 311.76C217.682 310.512 218.642 309.531 219.869 308.816C221.106 308.101 222.493 307.744 224.029 307.744ZM222.205 316.976C222.685 316.976 223.128 316.837 223.533 316.56C223.938 316.272 224.258 315.888 224.493 315.408C224.728 314.917 224.845 314.384 224.845 313.808C224.845 313.253 224.69 312.805 224.381 312.464C224.082 312.112 223.656 311.936 223.101 311.936C222.589 311.936 222.136 312.091 221.741 312.4C221.357 312.699 221.058 313.099 220.845 313.6C220.632 314.091 220.525 314.603 220.525 315.136C220.525 315.701 220.669 316.149 220.957 316.48C221.245 316.811 221.661 316.976 222.205 316.976ZM235.848 309.088C236.605 309.088 237.267 309.253 237.832 309.584C238.408 309.915 238.835 310.331 239.112 310.832V309.232H240.584V318.192C240.584 318.992 240.413 319.701 240.072 320.32C239.731 320.949 239.24 321.44 238.6 321.792C237.971 322.144 237.235 322.32 236.392 322.32C235.24 322.32 234.28 322.048 233.512 321.504C232.744 320.96 232.291 320.219 232.152 319.28H233.592C233.752 319.813 234.083 320.24 234.584 320.56C235.085 320.891 235.688 321.056 236.392 321.056C237.192 321.056 237.843 320.805 238.344 320.304C238.856 319.803 239.112 319.099 239.112 318.192V316.352C238.824 316.864 238.397 317.291 237.832 317.632C237.267 317.973 236.605 318.144 235.848 318.144C235.069 318.144 234.36 317.952 233.72 317.568C233.091 317.184 232.595 316.645 232.232 315.952C231.869 315.259 231.688 314.469 231.688 313.584C231.688 312.688 231.869 311.904 232.232 311.232C232.595 310.549 233.091 310.021 233.72 309.648C234.36 309.275 235.069 309.088 235.848 309.088ZM239.112 313.6C239.112 312.939 238.979 312.363 238.712 311.872C238.445 311.381 238.083 311.008 237.624 310.752C237.176 310.485 236.68 310.352 236.136 310.352C235.592 310.352 235.096 310.48 234.648 310.736C234.2 310.992 233.843 311.365 233.576 311.856C233.309 312.347 233.176 312.923 233.176 313.584C233.176 314.256 233.309 314.843 233.576 315.344C233.843 315.835 234.2 316.213 234.648 316.48C235.096 316.736 235.592 316.864 236.136 316.864C236.68 316.864 237.176 316.736 237.624 316.48C238.083 316.213 238.445 315.835 238.712 315.344C238.979 314.843 239.112 314.261 239.112 313.6ZM253.589 309.072C254.271 309.072 254.879 309.216 255.413 309.504C255.946 309.781 256.367 310.203 256.677 310.768C256.986 311.333 257.141 312.021 257.141 312.832V318H255.701V313.04C255.701 312.165 255.482 311.499 255.045 311.04C254.618 310.571 254.037 310.336 253.301 310.336C252.543 310.336 251.941 310.581 251.493 311.072C251.045 311.552 250.821 312.251 250.821 313.168V318H249.381V313.04C249.381 312.165 249.162 311.499 248.725 311.04C248.298 310.571 247.717 310.336 246.981 310.336C246.223 310.336 245.621 310.581 245.173 311.072C244.725 311.552 244.501 312.251 244.501 313.168V318H243.045V309.232H244.501V310.496C244.789 310.037 245.173 309.685 245.653 309.44C246.143 309.195 246.682 309.072 247.269 309.072C248.005 309.072 248.655 309.237 249.221 309.568C249.786 309.899 250.207 310.384 250.485 311.024C250.73 310.405 251.135 309.925 251.701 309.584C252.266 309.243 252.895 309.072 253.589 309.072ZM258.985 313.584C258.985 312.688 259.166 311.904 259.529 311.232C259.892 310.549 260.388 310.021 261.017 309.648C261.657 309.275 262.366 309.088 263.145 309.088C263.913 309.088 264.58 309.253 265.145 309.584C265.71 309.915 266.132 310.331 266.409 310.832V309.232H267.881V318H266.409V316.368C266.121 316.88 265.689 317.307 265.113 317.648C264.548 317.979 263.886 318.144 263.129 318.144C262.35 318.144 261.646 317.952 261.017 317.568C260.388 317.184 259.892 316.645 259.529 315.952C259.166 315.259 258.985 314.469 258.985 313.584ZM266.409 313.6C266.409 312.939 266.276 312.363 266.009 311.872C265.742 311.381 265.38 311.008 264.921 310.752C264.473 310.485 263.977 310.352 263.433 310.352C262.889 310.352 262.393 310.48 261.945 310.736C261.497 310.992 261.14 311.365 260.873 311.856C260.606 312.347 260.473 312.923 260.473 313.584C260.473 314.256 260.606 314.843 260.873 315.344C261.14 315.835 261.497 316.213 261.945 316.48C262.393 316.736 262.889 316.864 263.433 316.864C263.977 316.864 264.473 316.736 264.921 316.48C265.38 316.213 265.742 315.835 266.009 315.344C266.276 314.843 266.409 314.261 266.409 313.6ZM271.093 307.808C270.816 307.808 270.581 307.712 270.389 307.52C270.197 307.328 270.101 307.093 270.101 306.816C270.101 306.539 270.197 306.304 270.389 306.112C270.581 305.92 270.816 305.824 271.093 305.824C271.36 305.824 271.584 305.92 271.765 306.112C271.957 306.304 272.053 306.539 272.053 306.816C272.053 307.093 271.957 307.328 271.765 307.52C271.584 307.712 271.36 307.808 271.093 307.808ZM271.797 309.232V318H270.341V309.232H271.797ZM275.735 306.16V318H274.279V306.16H275.735ZM278.68 318.096C278.403 318.096 278.168 318 277.976 317.808C277.784 317.616 277.688 317.381 277.688 317.104C277.688 316.827 277.784 316.592 277.976 316.4C278.168 316.208 278.403 316.112 278.68 316.112C278.947 316.112 279.171 316.208 279.352 316.4C279.544 316.592 279.64 316.827 279.64 317.104C279.64 317.381 279.544 317.616 279.352 317.808C279.171 318 278.947 318.096 278.68 318.096ZM281.032 313.6C281.032 312.693 281.213 311.904 281.576 311.232C281.938 310.549 282.44 310.021 283.08 309.648C283.73 309.275 284.472 309.088 285.304 309.088C286.381 309.088 287.266 309.349 287.96 309.872C288.664 310.395 289.128 311.12 289.352 312.048H287.784C287.634 311.515 287.341 311.093 286.904 310.784C286.477 310.475 285.944 310.32 285.304 310.32C284.472 310.32 283.8 310.608 283.288 311.184C282.776 311.749 282.52 312.555 282.52 313.6C282.52 314.656 282.776 315.472 283.288 316.048C283.8 316.624 284.472 316.912 285.304 316.912C285.944 316.912 286.477 316.763 286.904 316.464C287.33 316.165 287.624 315.739 287.784 315.184H289.352C289.117 316.08 288.648 316.8 287.944 317.344C287.24 317.877 286.36 318.144 285.304 318.144C284.472 318.144 283.73 317.957 283.08 317.584C282.44 317.211 281.938 316.683 281.576 316C281.213 315.317 281.032 314.517 281.032 313.6ZM295.119 318.144C294.297 318.144 293.551 317.957 292.879 317.584C292.217 317.211 291.695 316.683 291.311 316C290.937 315.307 290.751 314.507 290.751 313.6C290.751 312.704 290.943 311.915 291.327 311.232C291.721 310.539 292.255 310.011 292.927 309.648C293.599 309.275 294.351 309.088 295.183 309.088C296.015 309.088 296.767 309.275 297.439 309.648C298.111 310.011 298.639 310.533 299.023 311.216C299.417 311.899 299.615 312.693 299.615 313.6C299.615 314.507 299.412 315.307 299.007 316C298.612 316.683 298.073 317.211 297.391 317.584C296.708 317.957 295.951 318.144 295.119 318.144ZM295.119 316.864C295.641 316.864 296.132 316.741 296.591 316.496C297.049 316.251 297.417 315.883 297.695 315.392C297.983 314.901 298.127 314.304 298.127 313.6C298.127 312.896 297.988 312.299 297.711 311.808C297.433 311.317 297.071 310.955 296.623 310.72C296.175 310.475 295.689 310.352 295.167 310.352C294.633 310.352 294.143 310.475 293.695 310.72C293.257 310.955 292.905 311.317 292.639 311.808C292.372 312.299 292.239 312.896 292.239 313.6C292.239 314.315 292.367 314.917 292.623 315.408C292.889 315.899 293.241 316.267 293.679 316.512C294.116 316.747 294.596 316.864 295.119 316.864ZM312.073 309.072C312.756 309.072 313.364 309.216 313.897 309.504C314.43 309.781 314.852 310.203 315.161 310.768C315.47 311.333 315.625 312.021 315.625 312.832V318H314.185V313.04C314.185 312.165 313.966 311.499 313.529 311.04C313.102 310.571 312.521 310.336 311.785 310.336C311.028 310.336 310.425 310.581 309.977 311.072C309.529 311.552 309.305 312.251 309.305 313.168V318H307.865V313.04C307.865 312.165 307.646 311.499 307.209 311.04C306.782 310.571 306.201 310.336 305.465 310.336C304.708 310.336 304.105 310.581 303.657 311.072C303.209 311.552 302.985 312.251 302.985 313.168V318H301.529V309.232H302.985V310.496C303.273 310.037 303.657 309.685 304.137 309.44C304.628 309.195 305.166 309.072 305.753 309.072C306.489 309.072 307.14 309.237 307.705 309.568C308.27 309.899 308.692 310.384 308.969 311.024C309.214 310.405 309.62 309.925 310.185 309.584C310.75 309.243 311.38 309.072 312.073 309.072Z" fill="white"/>
<path d="M101.544 380.928V392H100.088V383.744L96.408 392H95.384L91.688 383.728V392H90.232V380.928H91.8L95.896 390.08L99.992 380.928H101.544ZM112.013 387.28C112.013 387.557 111.997 387.851 111.965 388.16H104.957C105.011 389.024 105.304 389.701 105.837 390.192C106.381 390.672 107.037 390.912 107.805 390.912C108.435 390.912 108.957 390.768 109.373 390.48C109.8 390.181 110.099 389.787 110.269 389.296H111.837C111.603 390.139 111.133 390.827 110.429 391.36C109.725 391.883 108.851 392.144 107.805 392.144C106.973 392.144 106.227 391.957 105.565 391.584C104.915 391.211 104.403 390.683 104.029 390C103.656 389.307 103.469 388.507 103.469 387.6C103.469 386.693 103.651 385.899 104.013 385.216C104.376 384.533 104.883 384.011 105.533 383.648C106.195 383.275 106.952 383.088 107.805 383.088C108.637 383.088 109.373 383.269 110.013 383.632C110.653 383.995 111.144 384.496 111.485 385.136C111.837 385.765 112.013 386.48 112.013 387.28ZM110.509 386.976C110.509 386.421 110.387 385.947 110.141 385.552C109.896 385.147 109.56 384.843 109.133 384.64C108.717 384.427 108.253 384.32 107.741 384.32C107.005 384.32 106.376 384.555 105.853 385.024C105.341 385.493 105.048 386.144 104.973 386.976H110.509ZM113.391 387.584C113.391 386.688 113.572 385.904 113.935 385.232C114.298 384.549 114.794 384.021 115.423 383.648C116.063 383.275 116.778 383.088 117.567 383.088C118.25 383.088 118.884 383.248 119.471 383.568C120.058 383.877 120.506 384.288 120.815 384.8V380.16H122.287V392H120.815V390.352C120.527 390.875 120.1 391.307 119.535 391.648C118.97 391.979 118.308 392.144 117.551 392.144C116.772 392.144 116.063 391.952 115.423 391.568C114.794 391.184 114.298 390.645 113.935 389.952C113.572 389.259 113.391 388.469 113.391 387.584ZM120.815 387.6C120.815 386.939 120.682 386.363 120.415 385.872C120.148 385.381 119.786 385.008 119.327 384.752C118.879 384.485 118.383 384.352 117.839 384.352C117.295 384.352 116.799 384.48 116.351 384.736C115.903 384.992 115.546 385.365 115.279 385.856C115.012 386.347 114.879 386.923 114.879 387.584C114.879 388.256 115.012 388.843 115.279 389.344C115.546 389.835 115.903 390.213 116.351 390.48C116.799 390.736 117.295 390.864 117.839 390.864C118.383 390.864 118.879 390.736 119.327 390.48C119.786 390.213 120.148 389.835 120.415 389.344C120.682 388.843 120.815 388.261 120.815 387.6ZM125.5 381.808C125.222 381.808 124.988 381.712 124.796 381.52C124.604 381.328 124.508 381.093 124.508 380.816C124.508 380.539 124.604 380.304 124.796 380.112C124.988 379.92 125.222 379.824 125.5 379.824C125.766 379.824 125.99 379.92 126.172 380.112C126.364 380.304 126.46 380.539 126.46 380.816C126.46 381.093 126.364 381.328 126.172 381.52C125.99 381.712 125.766 381.808 125.5 381.808ZM126.204 383.232V392H124.748V383.232H126.204ZM132.957 383.072C134.024 383.072 134.888 383.397 135.549 384.048C136.21 384.688 136.541 385.616 136.541 386.832V392H135.101V387.04C135.101 386.165 134.882 385.499 134.445 385.04C134.008 384.571 133.41 384.336 132.653 384.336C131.885 384.336 131.272 384.576 130.813 385.056C130.365 385.536 130.141 386.235 130.141 387.152V392H128.685V383.232H130.141V384.48C130.429 384.032 130.818 383.685 131.309 383.44C131.81 383.195 132.36 383.072 132.957 383.072ZM138.376 387.584C138.376 386.688 138.557 385.904 138.92 385.232C139.282 384.549 139.778 384.021 140.408 383.648C141.048 383.275 141.757 383.088 142.536 383.088C143.304 383.088 143.97 383.253 144.536 383.584C145.101 383.915 145.522 384.331 145.8 384.832V383.232H147.272V392H145.8V390.368C145.512 390.88 145.08 391.307 144.504 391.648C143.938 391.979 143.277 392.144 142.52 392.144C141.741 392.144 141.037 391.952 140.408 391.568C139.778 391.184 139.282 390.645 138.92 389.952C138.557 389.259 138.376 388.469 138.376 387.584ZM145.8 387.6C145.8 386.939 145.666 386.363 145.4 385.872C145.133 385.381 144.77 385.008 144.312 384.752C143.864 384.485 143.368 384.352 142.824 384.352C142.28 384.352 141.784 384.48 141.336 384.736C140.888 384.992 140.53 385.365 140.264 385.856C139.997 386.347 139.864 386.923 139.864 387.584C139.864 388.256 139.997 388.843 140.264 389.344C140.53 389.835 140.888 390.213 141.336 390.48C141.784 390.736 142.28 390.864 142.824 390.864C143.368 390.864 143.864 390.736 144.312 390.48C144.77 390.213 145.133 389.835 145.4 389.344C145.666 388.843 145.8 388.261 145.8 387.6ZM155.172 376.928L150.788 394.72H149.348L153.716 376.928H155.172ZM160.957 383.088C161.715 383.088 162.376 383.253 162.941 383.584C163.517 383.915 163.944 384.331 164.221 384.832V383.232H165.693V392.192C165.693 392.992 165.523 393.701 165.181 394.32C164.84 394.949 164.349 395.44 163.709 395.792C163.08 396.144 162.344 396.32 161.501 396.32C160.349 396.32 159.389 396.048 158.621 395.504C157.853 394.96 157.4 394.219 157.261 393.28H158.701C158.861 393.813 159.192 394.24 159.693 394.56C160.195 394.891 160.797 395.056 161.501 395.056C162.301 395.056 162.952 394.805 163.453 394.304C163.965 393.803 164.221 393.099 164.221 392.192V390.352C163.933 390.864 163.507 391.291 162.941 391.632C162.376 391.973 161.715 392.144 160.957 392.144C160.179 392.144 159.469 391.952 158.829 391.568C158.2 391.184 157.704 390.645 157.341 389.952C156.979 389.259 156.797 388.469 156.797 387.584C156.797 386.688 156.979 385.904 157.341 385.232C157.704 384.549 158.2 384.021 158.829 383.648C159.469 383.275 160.179 383.088 160.957 383.088ZM164.221 387.6C164.221 386.939 164.088 386.363 163.821 385.872C163.555 385.381 163.192 385.008 162.733 384.752C162.285 384.485 161.789 384.352 161.245 384.352C160.701 384.352 160.205 384.48 159.757 384.736C159.309 384.992 158.952 385.365 158.685 385.856C158.419 386.347 158.285 386.923 158.285 387.584C158.285 388.256 158.419 388.843 158.685 389.344C158.952 389.835 159.309 390.213 159.757 390.48C160.205 390.736 160.701 390.864 161.245 390.864C161.789 390.864 162.285 390.736 162.733 390.48C163.192 390.213 163.555 389.835 163.821 389.344C164.088 388.843 164.221 388.261 164.221 387.6ZM175.93 383.232V392H174.474V390.704C174.197 391.152 173.807 391.504 173.306 391.76C172.815 392.005 172.271 392.128 171.674 392.128C170.991 392.128 170.378 391.989 169.834 391.712C169.29 391.424 168.858 390.997 168.538 390.432C168.229 389.867 168.074 389.179 168.074 388.368V383.232H169.514V388.176C169.514 389.04 169.733 389.707 170.17 390.176C170.607 390.635 171.205 390.864 171.962 390.864C172.741 390.864 173.354 390.624 173.802 390.144C174.25 389.664 174.474 388.965 174.474 388.048V383.232H175.93ZM186.388 387.28C186.388 387.557 186.372 387.851 186.34 388.16H179.332C179.386 389.024 179.679 389.701 180.212 390.192C180.756 390.672 181.412 390.912 182.18 390.912C182.81 390.912 183.332 390.768 183.748 390.48C184.175 390.181 184.474 389.787 184.644 389.296H186.212C185.978 390.139 185.508 390.827 184.804 391.36C184.1 391.883 183.226 392.144 182.18 392.144C181.348 392.144 180.602 391.957 179.94 391.584C179.29 391.211 178.778 390.683 178.404 390C178.031 389.307 177.844 388.507 177.844 387.6C177.844 386.693 178.026 385.899 178.388 385.216C178.751 384.533 179.258 384.011 179.908 383.648C180.57 383.275 181.327 383.088 182.18 383.088C183.012 383.088 183.748 383.269 184.388 383.632C185.028 383.995 185.519 384.496 185.86 385.136C186.212 385.765 186.388 386.48 186.388 387.28ZM184.884 386.976C184.884 386.421 184.762 385.947 184.516 385.552C184.271 385.147 183.935 384.843 183.508 384.64C183.092 384.427 182.628 384.32 182.116 384.32C181.38 384.32 180.751 384.555 180.228 385.024C179.716 385.493 179.423 386.144 179.348 386.976H184.884ZM196.086 383.232V392H194.63V390.704C194.353 391.152 193.963 391.504 193.462 391.76C192.971 392.005 192.427 392.128 191.83 392.128C191.147 392.128 190.534 391.989 189.99 391.712C189.446 391.424 189.014 390.997 188.694 390.432C188.385 389.867 188.23 389.179 188.23 388.368V383.232H189.67V388.176C189.67 389.04 189.889 389.707 190.326 390.176C190.763 390.635 191.361 390.864 192.118 390.864C192.897 390.864 193.51 390.624 193.958 390.144C194.406 389.664 194.63 388.965 194.63 388.048V383.232H196.086ZM200.001 380.16V392H198.545V380.16H200.001ZM210.482 387.28C210.482 387.557 210.466 387.851 210.434 388.16H203.426C203.479 389.024 203.773 389.701 204.306 390.192C204.85 390.672 205.506 390.912 206.274 390.912C206.903 390.912 207.426 390.768 207.842 390.48C208.269 390.181 208.567 389.787 208.738 389.296H210.306C210.071 390.139 209.602 390.827 208.898 391.36C208.194 391.883 207.319 392.144 206.274 392.144C205.442 392.144 204.695 391.957 204.034 391.584C203.383 391.211 202.871 390.683 202.498 390C202.125 389.307 201.938 388.507 201.938 387.6C201.938 386.693 202.119 385.899 202.482 385.216C202.845 384.533 203.351 384.011 204.002 383.648C204.663 383.275 205.421 383.088 206.274 383.088C207.106 383.088 207.842 383.269 208.482 383.632C209.122 383.995 209.613 384.496 209.954 385.136C210.306 385.765 210.482 386.48 210.482 387.28ZM208.978 386.976C208.978 386.421 208.855 385.947 208.61 385.552C208.365 385.147 208.029 384.843 207.602 384.64C207.186 384.427 206.722 384.32 206.21 384.32C205.474 384.32 204.845 384.555 204.322 385.024C203.81 385.493 203.517 386.144 203.442 386.976H208.978ZM218.446 384.432V389.6C218.446 390.027 218.536 390.331 218.718 390.512C218.899 390.683 219.214 390.768 219.661 390.768H220.734V392H219.422C218.611 392 218.003 391.813 217.598 391.44C217.192 391.067 216.99 390.453 216.99 389.6V384.432H215.854V383.232H216.99V381.024H218.446V383.232H220.734V384.432H218.446ZM221.954 387.584C221.954 386.688 222.135 385.904 222.498 385.232C222.86 384.549 223.356 384.021 223.986 383.648C224.626 383.275 225.335 383.088 226.114 383.088C226.882 383.088 227.548 383.253 228.114 383.584C228.679 383.915 229.1 384.331 229.378 384.832V383.232H230.85V392H229.378V390.368C229.09 390.88 228.658 391.307 228.082 391.648C227.516 391.979 226.855 392.144 226.098 392.144C225.319 392.144 224.615 391.952 223.986 391.568C223.356 391.184 222.86 390.645 222.498 389.952C222.135 389.259 221.954 388.469 221.954 387.584ZM229.378 387.6C229.378 386.939 229.244 386.363 228.978 385.872C228.711 385.381 228.348 385.008 227.89 384.752C227.442 384.485 226.946 384.352 226.402 384.352C225.858 384.352 225.362 384.48 224.914 384.736C224.466 384.992 224.108 385.365 223.842 385.856C223.575 386.347 223.442 386.923 223.442 387.584C223.442 388.256 223.575 388.843 223.842 389.344C224.108 389.835 224.466 390.213 224.914 390.48C225.362 390.736 225.858 390.864 226.402 390.864C226.946 390.864 227.442 390.736 227.89 390.48C228.348 390.213 228.711 389.835 228.978 389.344C229.244 388.843 229.378 388.261 229.378 387.6ZM234.766 384.848C235.054 384.347 235.481 383.931 236.046 383.6C236.622 383.259 237.289 383.088 238.046 383.088C238.825 383.088 239.529 383.275 240.158 383.648C240.798 384.021 241.299 384.549 241.662 385.232C242.025 385.904 242.206 386.688 242.206 387.584C242.206 388.469 242.025 389.259 241.662 389.952C241.299 390.645 240.798 391.184 240.158 391.568C239.529 391.952 238.825 392.144 238.046 392.144C237.299 392.144 236.638 391.979 236.062 391.648C235.497 391.307 235.065 390.885 234.766 390.384V396.16H233.31V383.232H234.766V384.848ZM240.718 387.584C240.718 386.923 240.585 386.347 240.318 385.856C240.051 385.365 239.689 384.992 239.23 384.736C238.782 384.48 238.286 384.352 237.742 384.352C237.209 384.352 236.713 384.485 236.254 384.752C235.806 385.008 235.443 385.387 235.166 385.888C234.899 386.379 234.766 386.949 234.766 387.6C234.766 388.261 234.899 388.843 235.166 389.344C235.443 389.835 235.806 390.213 236.254 390.48C236.713 390.736 237.209 390.864 237.742 390.864C238.286 390.864 238.782 390.736 239.23 390.48C239.689 390.213 240.051 389.835 240.318 389.344C240.585 388.843 240.718 388.256 240.718 387.584ZM252.123 387.28C252.123 387.557 252.107 387.851 252.075 388.16H245.067C245.12 389.024 245.413 389.701 245.947 390.192C246.491 390.672 247.147 390.912 247.915 390.912C248.544 390.912 249.067 390.768 249.483 390.48C249.909 390.181 250.208 389.787 250.379 389.296H251.947C251.712 390.139 251.243 390.827 250.539 391.36C249.835 391.883 248.96 392.144 247.915 392.144C247.083 392.144 246.336 391.957 245.675 391.584C245.024 391.211 244.512 390.683 244.139 390C243.765 389.307 243.579 388.507 243.579 387.6C243.579 386.693 243.76 385.899 244.123 385.216C244.485 384.533 244.992 384.011 245.643 383.648C246.304 383.275 247.061 383.088 247.915 383.088C248.747 383.088 249.483 383.269 250.123 383.632C250.763 383.995 251.253 384.496 251.595 385.136C251.947 385.765 252.123 386.48 252.123 387.28ZM250.619 386.976C250.619 386.421 250.496 385.947 250.251 385.552C250.005 385.147 249.669 384.843 249.243 384.64C248.827 384.427 248.363 384.32 247.851 384.32C247.115 384.32 246.485 384.555 245.963 385.024C245.451 385.493 245.157 386.144 245.083 386.976H250.619ZM249.419 380.752L246.011 382.576V381.488L249.419 379.488V380.752ZM255.549 389.984L253.757 394.288H252.78L253.949 389.984H255.549ZM262.938 384.656C263.194 384.155 263.557 383.765 264.026 383.488C264.506 383.211 265.087 383.072 265.77 383.072V384.576H265.386C263.754 384.576 262.938 385.461 262.938 387.232V392H261.482V383.232H262.938V384.656ZM275.227 383.232V392H273.771V390.704C273.493 391.152 273.104 391.504 272.603 391.76C272.112 392.005 271.568 392.128 270.971 392.128C270.288 392.128 269.675 391.989 269.131 391.712C268.587 391.424 268.155 390.997 267.835 390.432C267.525 389.867 267.371 389.179 267.371 388.368V383.232H268.811V388.176C268.811 389.04 269.029 389.707 269.467 390.176C269.904 390.635 270.501 390.864 271.259 390.864C272.037 390.864 272.651 390.624 273.099 390.144C273.547 389.664 273.771 388.965 273.771 388.048V383.232H275.227ZM285.685 387.28C285.685 387.557 285.669 387.851 285.637 388.16H278.629C278.682 389.024 278.976 389.701 279.509 390.192C280.053 390.672 280.709 390.912 281.477 390.912C282.106 390.912 282.629 390.768 283.045 390.48C283.472 390.181 283.77 389.787 283.941 389.296H285.509C285.274 390.139 284.805 390.827 284.101 391.36C283.397 391.883 282.522 392.144 281.477 392.144C280.645 392.144 279.898 391.957 279.237 391.584C278.586 391.211 278.074 390.683 277.701 390C277.328 389.307 277.141 388.507 277.141 387.6C277.141 386.693 277.322 385.899 277.685 385.216C278.048 384.533 278.554 384.011 279.205 383.648C279.866 383.275 280.624 383.088 281.477 383.088C282.309 383.088 283.045 383.269 283.685 383.632C284.325 383.995 284.816 384.496 285.157 385.136C285.509 385.765 285.685 386.48 285.685 387.28ZM284.181 386.976C284.181 386.421 284.058 385.947 283.813 385.552C283.568 385.147 283.232 384.843 282.805 384.64C282.389 384.427 281.925 384.32 281.413 384.32C280.677 384.32 280.048 384.555 279.525 385.024C279.013 385.493 278.72 386.144 278.645 386.976H284.181ZM291.249 381.76V380.432H294.257V392H292.785V381.76H291.249ZM304.134 381.696H298.518V385.344C298.763 385.003 299.126 384.725 299.606 384.512C300.086 384.288 300.603 384.176 301.158 384.176C302.043 384.176 302.763 384.363 303.318 384.736C303.872 385.099 304.267 385.573 304.502 386.16C304.747 386.736 304.87 387.349 304.87 388C304.87 388.768 304.726 389.456 304.438 390.064C304.15 390.672 303.707 391.152 303.11 391.504C302.523 391.856 301.792 392.032 300.918 392.032C299.798 392.032 298.891 391.744 298.198 391.168C297.504 390.592 297.083 389.824 296.934 388.864H298.358C298.496 389.472 298.79 389.947 299.238 390.288C299.686 390.629 300.251 390.8 300.934 390.8C301.776 390.8 302.411 390.549 302.838 390.048C303.264 389.536 303.478 388.864 303.478 388.032C303.478 387.2 303.264 386.56 302.838 386.112C302.411 385.653 301.782 385.424 300.95 385.424C300.384 385.424 299.888 385.563 299.462 385.84C299.046 386.107 298.742 386.475 298.55 386.944H297.174V380.416H304.134V381.696ZM315.87 386.432L319.294 392H317.646L314.974 387.648L312.43 392H310.814L314.222 386.432L310.798 380.848H312.43L315.118 385.216L317.678 380.848H319.31L315.87 386.432ZM325.241 383.344C325.316 382.363 325.695 381.595 326.377 381.04C327.06 380.485 327.945 380.208 329.033 380.208C329.759 380.208 330.383 380.341 330.905 380.608C331.439 380.864 331.839 381.216 332.105 381.664C332.383 382.112 332.521 382.619 332.521 383.184C332.521 383.845 332.329 384.416 331.945 384.896C331.572 385.376 331.081 385.685 330.473 385.824V385.904C331.167 386.075 331.716 386.411 332.121 386.912C332.527 387.413 332.729 388.069 332.729 388.88C332.729 389.488 332.591 390.037 332.313 390.528C332.036 391.008 331.62 391.387 331.065 391.664C330.511 391.941 329.844 392.08 329.065 392.08C327.935 392.08 327.007 391.787 326.281 391.2C325.556 390.603 325.151 389.76 325.065 388.672H326.473C326.548 389.312 326.809 389.835 327.257 390.24C327.705 390.645 328.303 390.848 329.049 390.848C329.796 390.848 330.361 390.656 330.745 390.272C331.14 389.877 331.337 389.371 331.337 388.752C331.337 387.952 331.071 387.376 330.537 387.024C330.004 386.672 329.199 386.496 328.121 386.496H327.753V385.28H328.137C329.119 385.269 329.86 385.109 330.361 384.8C330.863 384.48 331.113 383.989 331.113 383.328C331.113 382.763 330.927 382.309 330.553 381.968C330.191 381.627 329.668 381.456 328.985 381.456C328.324 381.456 327.791 381.627 327.385 381.968C326.98 382.309 326.74 382.768 326.665 383.344H325.241ZM334.695 386.096C334.695 384.261 334.994 382.832 335.591 381.808C336.188 380.773 337.234 380.256 338.727 380.256C340.21 380.256 341.25 380.773 341.847 381.808C342.444 382.832 342.743 384.261 342.743 386.096C342.743 387.963 342.444 389.413 341.847 390.448C341.25 391.483 340.21 392 338.727 392C337.234 392 336.188 391.483 335.591 390.448C334.994 389.413 334.695 387.963 334.695 386.096ZM341.303 386.096C341.303 385.168 341.239 384.384 341.111 383.744C340.994 383.093 340.743 382.571 340.359 382.176C339.986 381.781 339.442 381.584 338.727 381.584C338.002 381.584 337.447 381.781 337.063 382.176C336.69 382.571 336.439 383.093 336.311 383.744C336.194 384.384 336.135 385.168 336.135 386.096C336.135 387.056 336.194 387.861 336.311 388.512C336.439 389.163 336.69 389.685 337.063 390.08C337.447 390.475 338.002 390.672 338.727 390.672C339.442 390.672 339.986 390.475 340.359 390.08C340.743 389.685 340.994 389.163 341.111 388.512C341.239 387.861 341.303 387.056 341.303 386.096ZM93.976 418.976C92.952 417.973 92.152 416.699 91.576 415.152C91.0107 413.605 90.728 411.936 90.728 410.144C90.728 408.309 91.0267 406.597 91.624 405.008C92.232 403.408 93.096 402.091 94.216 401.056H95.736V401.2C94.5413 402.32 93.64 403.669 93.032 405.248C92.4347 406.816 92.136 408.448 92.136 410.144C92.136 411.797 92.4187 413.376 92.984 414.88C93.56 416.384 94.3973 417.701 95.496 418.832V418.976H93.976ZM96.8736 405.76V404.432H99.8816V416H98.4096V405.76H96.8736ZM102.351 407.344C102.425 406.363 102.804 405.595 103.487 405.04C104.169 404.485 105.055 404.208 106.143 404.208C106.868 404.208 107.492 404.341 108.015 404.608C108.548 404.864 108.948 405.216 109.215 405.664C109.492 406.112 109.631 406.619 109.631 407.184C109.631 407.845 109.439 408.416 109.055 408.896C108.681 409.376 108.191 409.685 107.583 409.824V409.904C108.276 410.075 108.825 410.411 109.231 410.912C109.636 411.413 109.839 412.069 109.839 412.88C109.839 413.488 109.7 414.037 109.423 414.528C109.145 415.008 108.729 415.387 108.175 415.664C107.62 415.941 106.953 416.08 106.175 416.08C105.044 416.08 104.116 415.787 103.391 415.2C102.665 414.603 102.26 413.76 102.175 412.672H103.583C103.657 413.312 103.919 413.835 104.367 414.24C104.815 414.645 105.412 414.848 106.159 414.848C106.905 414.848 107.471 414.656 107.855 414.272C108.249 413.877 108.447 413.371 108.447 412.752C108.447 411.952 108.18 411.376 107.647 411.024C107.113 410.672 106.308 410.496 105.231 410.496H104.863V409.28H105.247C106.228 409.269 106.969 409.109 107.471 408.8C107.972 408.48 108.223 407.989 108.223 407.328C108.223 406.763 108.036 406.309 107.663 405.968C107.3 405.627 106.777 405.456 106.095 405.456C105.433 405.456 104.9 405.627 104.495 405.968C104.089 406.309 103.849 406.768 103.775 407.344H102.351ZM119.181 405.696H113.565V409.344C113.81 409.003 114.173 408.725 114.653 408.512C115.133 408.288 115.65 408.176 116.205 408.176C117.09 408.176 117.81 408.363 118.365 408.736C118.919 409.099 119.314 409.573 119.549 410.16C119.794 410.736 119.917 411.349 119.917 412C119.917 412.768 119.773 413.456 119.485 414.064C119.197 414.672 118.754 415.152 118.157 415.504C117.57 415.856 116.839 416.032 115.965 416.032C114.845 416.032 113.938 415.744 113.245 415.168C112.551 414.592 112.13 413.824 111.981 412.864H113.405C113.543 413.472 113.837 413.947 114.285 414.288C114.733 414.629 115.298 414.8 115.981 414.8C116.823 414.8 117.458 414.549 117.885 414.048C118.311 413.536 118.525 412.864 118.525 412.032C118.525 411.2 118.311 410.56 117.885 410.112C117.458 409.653 116.829 409.424 115.997 409.424C115.431 409.424 114.935 409.563 114.509 409.84C114.093 410.107 113.789 410.475 113.597 410.944H112.221V404.416H119.181V405.696ZM121.851 410.096C121.851 408.261 122.15 406.832 122.747 405.808C123.345 404.773 124.39 404.256 125.883 404.256C127.366 404.256 128.406 404.773 129.003 405.808C129.601 406.832 129.899 408.261 129.899 410.096C129.899 411.963 129.601 413.413 129.003 414.448C128.406 415.483 127.366 416 125.883 416C124.39 416 123.345 415.483 122.747 414.448C122.15 413.413 121.851 411.963 121.851 410.096ZM128.459 410.096C128.459 409.168 128.395 408.384 128.267 407.744C128.15 407.093 127.899 406.571 127.515 406.176C127.142 405.781 126.598 405.584 125.883 405.584C125.158 405.584 124.603 405.781 124.219 406.176C123.846 406.571 123.595 407.093 123.467 407.744C123.35 408.384 123.291 409.168 123.291 410.096C123.291 411.056 123.35 411.861 123.467 412.512C123.595 413.163 123.846 413.685 124.219 414.08C124.603 414.475 125.158 414.672 125.883 414.672C126.598 414.672 127.142 414.475 127.515 414.08C127.899 413.685 128.15 413.163 128.267 412.512C128.395 411.861 128.459 411.056 128.459 410.096ZM131.898 410.096C131.898 408.261 132.197 406.832 132.794 405.808C133.392 404.773 134.437 404.256 135.93 404.256C137.413 404.256 138.453 404.773 139.05 405.808C139.648 406.832 139.946 408.261 139.946 410.096C139.946 411.963 139.648 413.413 139.05 414.448C138.453 415.483 137.413 416 135.93 416C134.437 416 133.392 415.483 132.794 414.448C132.197 413.413 131.898 411.963 131.898 410.096ZM138.506 410.096C138.506 409.168 138.442 408.384 138.314 407.744C138.197 407.093 137.946 406.571 137.562 406.176C137.189 405.781 136.645 405.584 135.93 405.584C135.205 405.584 134.65 405.781 134.266 406.176C133.893 406.571 133.642 407.093 133.514 407.744C133.397 408.384 133.338 409.168 133.338 410.096C133.338 411.056 133.397 411.861 133.514 412.512C133.642 413.163 133.893 413.685 134.266 414.08C134.65 414.475 135.205 414.672 135.93 414.672C136.645 414.672 137.189 414.475 137.562 414.08C137.946 413.685 138.197 413.163 138.314 412.512C138.442 411.861 138.506 411.056 138.506 410.096ZM145.987 418.976V418.832C147.085 417.701 147.917 416.384 148.483 414.88C149.059 413.376 149.347 411.797 149.347 410.144C149.347 408.448 149.043 406.816 148.435 405.248C147.837 403.669 146.941 402.32 145.747 401.2V401.056H147.267C148.387 402.091 149.245 403.408 149.843 405.008C150.451 406.597 150.755 408.309 150.755 410.144C150.755 411.936 150.467 413.605 149.891 415.152C149.325 416.699 148.531 417.973 147.507 418.976H145.987ZM154.564 409.232C154.287 409.232 154.052 409.136 153.86 408.944C153.668 408.752 153.572 408.517 153.572 408.24C153.572 407.963 153.668 407.728 153.86 407.536C154.052 407.344 154.287 407.248 154.564 407.248C154.831 407.248 155.055 407.344 155.236 407.536C155.428 407.728 155.524 407.963 155.524 408.24C155.524 408.517 155.428 408.752 155.236 408.944C155.055 409.136 154.831 409.232 154.564 409.232ZM155.62 413.984L153.828 418.288H152.852L154.02 413.984H155.62Z" fill="white"/>
<circle cx="54" cy="596" r="15" fill="#4CAF50"/>
<path d="M62 591.425C61.4484 591.66 60.8481 591.828 60.2298 591.894C60.8717 591.519 61.3525 590.925 61.5818 590.225C60.9794 590.578 60.3195 590.826 59.6313 590.957C59.3437 590.654 58.9958 590.413 58.6094 590.248C58.2229 590.084 57.8062 589.999 57.3852 590C55.6816 590 54.3116 591.36 54.3116 593.028C54.3116 593.263 54.3405 593.497 54.3873 593.722C51.8366 593.591 49.5616 592.391 48.0492 590.554C47.7736 591.017 47.6292 591.545 47.6309 592.082C47.6309 593.133 48.1735 594.06 49.001 594.605C48.5133 594.586 48.0372 594.454 47.6111 594.22V594.257C47.6111 595.728 48.6675 596.948 50.0754 597.228C49.811 597.296 49.5391 597.331 49.266 597.331C49.0659 597.331 48.8766 597.312 48.6855 597.285C49.0749 598.485 50.2087 599.357 51.5589 599.385C50.5026 600.2 49.1794 600.679 47.7427 600.679C47.4849 600.679 47.247 600.67 47 600.642C48.3628 601.503 49.9798 602 51.7212 602C57.3744 602 60.4677 597.388 60.4677 593.385C60.4677 593.254 60.4677 593.122 60.4587 592.991C61.0572 592.56 61.5818 592.025 62 591.425Z" fill="white"/>
<circle cx="108" cy="596" r="15" fill="white"/>
<path fill-rule="evenodd" clip-rule="evenodd" d="M105.408 588.045C106.208 588.008 106.463 588 108.5 588C110.537 588 110.792 588.009 111.591 588.045C112.39 588.081 112.936 588.209 113.413 588.393C113.913 588.582 114.366 588.877 114.741 589.259C115.123 589.634 115.418 590.086 115.606 590.587C115.791 591.064 115.918 591.61 115.955 592.407C115.992 593.208 116 593.463 116 595.5C116 597.537 115.991 597.792 115.955 598.592C115.919 599.39 115.791 599.935 115.606 600.413C115.418 600.913 115.123 601.366 114.741 601.741C114.366 602.123 113.913 602.418 113.413 602.606C112.936 602.791 112.39 602.918 111.593 602.955C110.792 602.992 110.537 603 108.5 603C106.463 603 106.208 602.991 105.408 602.955C104.61 602.919 104.065 602.791 103.588 602.606C103.087 602.418 102.634 602.123 102.259 601.741C101.877 601.367 101.582 600.914 101.393 600.413C101.209 599.936 101.082 599.39 101.045 598.593C101.008 597.792 101 597.537 101 595.5C101 593.463 101.009 593.208 101.045 592.409C101.081 591.61 101.209 591.064 101.393 590.587C101.582 590.086 101.878 589.633 102.259 589.259C102.634 588.877 103.087 588.582 103.587 588.393C104.064 588.209 104.61 588.082 105.407 588.045H105.408ZM111.531 589.395C110.74 589.359 110.503 589.351 108.5 589.351C106.497 589.351 106.26 589.359 105.469 589.395C104.738 589.428 104.341 589.55 104.076 589.653C103.727 589.79 103.476 589.951 103.214 590.214C102.965 590.456 102.774 590.751 102.653 591.076C102.55 591.341 102.428 591.738 102.395 592.469C102.359 593.26 102.351 593.497 102.351 595.5C102.351 597.503 102.359 597.74 102.395 598.531C102.428 599.262 102.55 599.659 102.653 599.924C102.773 600.249 102.965 600.544 103.214 600.786C103.456 601.035 103.751 601.227 104.076 601.347C104.341 601.45 104.738 601.572 105.469 601.605C106.26 601.641 106.497 601.649 108.5 601.649C110.503 601.649 110.74 601.641 111.531 601.605C112.262 601.572 112.659 601.45 112.924 601.347C113.273 601.21 113.524 601.049 113.786 600.786C114.035 600.544 114.227 600.249 114.347 599.924C114.45 599.659 114.572 599.262 114.605 598.531C114.641 597.74 114.649 597.503 114.649 595.5C114.649 593.497 114.641 593.26 114.605 592.469C114.572 591.738 114.45 591.341 114.347 591.076C114.21 590.727 114.049 590.476 113.786 590.214C113.544 589.965 113.249 589.774 112.924 589.653C112.659 589.55 112.262 589.428 111.531 589.395ZM107.542 597.812C108.077 598.035 108.673 598.065 109.227 597.897C109.782 597.729 110.261 597.374 110.583 596.892C110.905 596.411 111.05 595.832 110.993 595.255C110.935 594.679 110.68 594.14 110.269 593.731C110.008 593.469 109.691 593.269 109.343 593.144C108.995 593.02 108.623 592.974 108.255 593.01C107.887 593.047 107.531 593.164 107.214 593.354C106.897 593.545 106.626 593.803 106.42 594.11C106.214 594.418 106.08 594.767 106.025 595.133C105.971 595.499 105.999 595.872 106.106 596.226C106.213 596.581 106.398 596.906 106.646 597.18C106.894 597.455 107.2 597.67 107.542 597.812ZM105.774 592.774C106.132 592.416 106.557 592.132 107.025 591.938C107.492 591.745 107.994 591.645 108.5 591.645C109.006 591.645 109.508 591.745 109.975 591.938C110.443 592.132 110.868 592.416 111.226 592.774C111.584 593.132 111.868 593.557 112.062 594.025C112.255 594.492 112.355 594.994 112.355 595.5C112.355 596.006 112.255 596.508 112.062 596.975C111.868 597.443 111.584 597.868 111.226 598.226C110.503 598.949 109.522 599.355 108.5 599.355C107.478 599.355 106.497 598.949 105.774 598.226C105.051 597.503 104.645 596.522 104.645 595.5C104.645 594.478 105.051 593.497 105.774 592.774ZM113.21 592.219C113.299 592.135 113.37 592.035 113.419 591.923C113.468 591.812 113.494 591.691 113.496 591.569C113.498 591.447 113.475 591.326 113.429 591.213C113.383 591.1 113.315 590.998 113.229 590.911C113.143 590.825 113.04 590.757 112.927 590.711C112.814 590.665 112.693 590.643 112.571 590.644C112.449 590.646 112.329 590.672 112.217 590.722C112.106 590.771 112.005 590.842 111.921 590.93C111.759 591.103 111.67 591.332 111.673 591.569C111.676 591.806 111.772 592.033 111.94 592.201C112.108 592.368 112.334 592.464 112.571 592.467C112.808 592.471 113.037 592.382 113.21 592.219Z" fill="#011C2A"/>
<path d="M45.364 108.126C44.536 108.126 43.792 107.982 43.132 107.694C42.484 107.394 41.974 106.986 41.602 106.47C41.23 105.942 41.038 105.336 41.026 104.652H42.772C42.832 105.24 43.072 105.738 43.492 106.146C43.924 106.542 44.548 106.74 45.364 106.74C46.144 106.74 46.756 106.548 47.2 106.164C47.656 105.768 47.884 105.264 47.884 104.652C47.884 104.172 47.752 103.782 47.488 103.482C47.224 103.182 46.894 102.954 46.498 102.798C46.102 102.642 45.568 102.474 44.896 102.294C44.068 102.078 43.402 101.862 42.898 101.646C42.406 101.43 41.98 101.094 41.62 100.638C41.272 100.17 41.098 99.546 41.098 98.766C41.098 98.082 41.272 97.476 41.62 96.948C41.968 96.42 42.454 96.012 43.078 95.724C43.714 95.436 44.44 95.292 45.256 95.292C46.432 95.292 47.392 95.586 48.136 96.174C48.892 96.762 49.318 97.542 49.414 98.514H47.614C47.554 98.034 47.302 97.614 46.858 97.254C46.414 96.882 45.826 96.696 45.094 96.696C44.41 96.696 43.852 96.876 43.42 97.236C42.988 97.584 42.772 98.076 42.772 98.712C42.772 99.168 42.898 99.54 43.15 99.828C43.414 100.116 43.732 100.338 44.104 100.494C44.488 100.638 45.022 100.806 45.706 100.998C46.534 101.226 47.2 101.454 47.704 101.682C48.208 101.898 48.64 102.24 49 102.708C49.36 103.164 49.54 103.788 49.54 104.58C49.54 105.192 49.378 105.768 49.054 106.308C48.73 106.848 48.25 107.286 47.614 107.622C46.978 107.958 46.228 108.126 45.364 108.126ZM51.3385 103.032C51.3385 102.024 51.5425 101.142 51.9505 100.386C52.3585 99.618 52.9165 99.024 53.6245 98.604C54.3445 98.184 55.1425 97.974 56.0185 97.974C56.8825 97.974 57.6325 98.16 58.2685 98.532C58.9045 98.904 59.3785 99.372 59.6905 99.936V98.136H61.3465V108H59.6905V106.164C59.3665 106.74 58.8805 107.22 58.2325 107.604C57.5965 107.976 56.8525 108.162 56.0005 108.162C55.1245 108.162 54.3325 107.946 53.6245 107.514C52.9165 107.082 52.3585 106.476 51.9505 105.696C51.5425 104.916 51.3385 104.028 51.3385 103.032ZM59.6905 103.05C59.6905 102.306 59.5405 101.658 59.2405 101.106C58.9405 100.554 58.5325 100.134 58.0165 99.846C57.5125 99.546 56.9545 99.396 56.3425 99.396C55.7305 99.396 55.1725 99.54 54.6685 99.828C54.1645 100.116 53.7625 100.536 53.4625 101.088C53.1625 101.64 53.0125 102.288 53.0125 103.032C53.0125 103.788 53.1625 104.448 53.4625 105.012C53.7625 105.564 54.1645 105.99 54.6685 106.29C55.1725 106.578 55.7305 106.722 56.3425 106.722C56.9545 106.722 57.5125 106.578 58.0165 106.29C58.5325 105.99 58.9405 105.564 59.2405 105.012C59.5405 104.448 59.6905 103.794 59.6905 103.05ZM72.6105 98.136L66.6705 112.644H64.9785L66.9225 107.892L62.9445 98.136H64.7625L67.8585 106.128L70.9185 98.136H72.6105ZM82.5479 108.162C81.7919 108.162 81.1139 108.036 80.5139 107.784C79.9139 107.52 79.4399 107.16 79.0919 106.704C78.7439 106.236 78.5519 105.702 78.5159 105.102H80.2079C80.2559 105.594 80.4839 105.996 80.8919 106.308C81.3119 106.62 81.8579 106.776 82.5299 106.776C83.1539 106.776 83.6459 106.638 84.0059 106.362C84.3659 106.086 84.5459 105.738 84.5459 105.318C84.5459 104.886 84.3539 104.568 83.9699 104.364C83.5859 104.148 82.9919 103.938 82.1879 103.734C81.4559 103.542 80.8559 103.35 80.3879 103.158C79.9319 102.954 79.5359 102.66 79.1999 102.276C78.8759 101.88 78.7139 101.364 78.7139 100.728C78.7139 100.224 78.8639 99.762 79.1639 99.342C79.4639 98.922 79.8899 98.592 80.4419 98.352C80.9939 98.1 81.6239 97.974 82.3319 97.974C83.4239 97.974 84.3059 98.25 84.9779 98.802C85.6499 99.354 86.0099 100.11 86.0579 101.07H84.4199C84.3839 100.554 84.1739 100.14 83.7899 99.828C83.4179 99.516 82.9139 99.36 82.2779 99.36C81.6899 99.36 81.2219 99.486 80.8739 99.738C80.5259 99.99 80.3519 100.32 80.3519 100.728C80.3519 101.052 80.4539 101.322 80.6579 101.538C80.8739 101.742 81.1379 101.91 81.4499 102.042C81.7739 102.162 82.2179 102.3 82.7819 102.456C83.4899 102.648 84.0659 102.84 84.5099 103.032C84.9539 103.212 85.3319 103.488 85.6439 103.86C85.9679 104.232 86.1359 104.718 86.1479 105.318C86.1479 105.858 85.9979 106.344 85.6979 106.776C85.3979 107.208 84.9719 107.55 84.4199 107.802C83.8799 108.042 83.2559 108.162 82.5479 108.162ZM92.7622 108.162C91.8382 108.162 90.9982 107.952 90.2422 107.532C89.4982 107.112 88.9102 106.518 88.4782 105.75C88.0582 104.97 87.8482 104.07 87.8482 103.05C87.8482 102.042 88.0642 101.154 88.4962 100.386C88.9402 99.606 89.5402 99.012 90.2962 98.604C91.0522 98.184 91.8982 97.974 92.8342 97.974C93.7702 97.974 94.6162 98.184 95.3722 98.604C96.1282 99.012 96.7222 99.6 97.1542 100.368C97.5982 101.136 97.8202 102.03 97.8202 103.05C97.8202 104.07 97.5922 104.97 97.1362 105.75C96.6922 106.518 96.0862 107.112 95.3182 107.532C94.5502 107.952 93.6982 108.162 92.7622 108.162ZM92.7622 106.722C93.3502 106.722 93.9022 106.584 94.4182 106.308C94.9342 106.032 95.3482 105.618 95.6602 105.066C95.9842 104.514 96.1462 103.842 96.1462 103.05C96.1462 102.258 95.9902 101.586 95.6782 101.034C95.3662 100.482 94.9582 100.074 94.4542 99.81C93.9502 99.534 93.4042 99.396 92.8162 99.396C92.2162 99.396 91.6642 99.534 91.1602 99.81C90.6682 100.074 90.2722 100.482 89.9722 101.034C89.6722 101.586 89.5222 102.258 89.5222 103.05C89.5222 103.854 89.6662 104.532 89.9542 105.084C90.2542 105.636 90.6502 106.05 91.1422 106.326C91.6342 106.59 92.1742 106.722 92.7622 106.722ZM111.836 97.956C112.604 97.956 113.288 98.118 113.888 98.442C114.488 98.754 114.962 99.228 115.31 99.864C115.658 100.5 115.832 101.274 115.832 102.186V108H114.212V102.42C114.212 101.436 113.966 100.686 113.474 100.17C112.994 99.642 112.34 99.378 111.512 99.378C110.66 99.378 109.982 99.654 109.478 100.206C108.974 100.746 108.722 101.532 108.722 102.564V108H107.102V102.42C107.102 101.436 106.856 100.686 106.364 100.17C105.884 99.642 105.23 99.378 104.402 99.378C103.55 99.378 102.872 99.654 102.368 100.206C101.864 100.746 101.612 101.532 101.612 102.564V108H99.9739V98.136H101.612V99.558C101.936 99.042 102.368 98.646 102.908 98.37C103.46 98.094 104.066 97.956 104.726 97.956C105.554 97.956 106.286 98.142 106.922 98.514C107.558 98.886 108.032 99.432 108.344 100.152C108.62 99.456 109.076 98.916 109.712 98.532C110.348 98.148 111.056 97.956 111.836 97.956ZM127.519 102.69C127.519 103.002 127.501 103.332 127.465 103.68H119.581C119.641 104.652 119.971 105.414 120.571 105.966C121.183 106.506 121.921 106.776 122.785 106.776C123.493 106.776 124.081 106.614 124.549 106.29C125.029 105.954 125.365 105.51 125.557 104.958H127.321C127.057 105.906 126.529 106.68 125.737 107.28C124.945 107.868 123.961 108.162 122.785 108.162C121.849 108.162 121.009 107.952 120.265 107.532C119.533 107.112 118.957 106.518 118.537 105.75C118.117 104.97 117.907 104.07 117.907 103.05C117.907 102.03 118.111 101.136 118.519 100.368C118.927 99.6 119.497 99.012 120.229 98.604C120.973 98.184 121.825 97.974 122.785 97.974C123.721 97.974 124.549 98.178 125.269 98.586C125.989 98.994 126.541 99.558 126.925 100.278C127.321 100.986 127.519 101.79 127.519 102.69ZM125.827 102.348C125.827 101.724 125.689 101.19 125.413 100.746C125.137 100.29 124.759 99.948 124.279 99.72C123.811 99.48 123.289 99.36 122.713 99.36C121.885 99.36 121.177 99.624 120.589 100.152C120.013 100.68 119.683 101.412 119.599 102.348H125.827ZM131.679 99.486V105.3C131.679 105.78 131.781 106.122 131.985 106.326C132.189 106.518 132.543 106.614 133.047 106.614H134.253V108H132.777C131.865 108 131.181 107.79 130.725 107.37C130.269 106.95 130.041 106.26 130.041 105.3V99.486H128.763V98.136H130.041V95.652H131.679V98.136H134.253V99.486H131.679ZM141.134 97.956C141.878 97.956 142.55 98.118 143.15 98.442C143.75 98.754 144.218 99.228 144.554 99.864C144.902 100.5 145.076 101.274 145.076 102.186V108H143.456V102.42C143.456 101.436 143.21 100.686 142.718 100.17C142.226 99.642 141.554 99.378 140.702 99.378C139.838 99.378 139.148 99.648 138.632 100.188C138.128 100.728 137.876 101.514 137.876 102.546V108H136.238V94.68H137.876V99.54C138.2 99.036 138.644 98.646 139.208 98.37C139.784 98.094 140.426 97.956 141.134 97.956ZM148.597 96.534C148.285 96.534 148.021 96.426 147.805 96.21C147.589 95.994 147.481 95.73 147.481 95.418C147.481 95.106 147.589 94.842 147.805 94.626C148.021 94.41 148.285 94.302 148.597 94.302C148.897 94.302 149.149 94.41 149.353 94.626C149.569 94.842 149.677 95.106 149.677 95.418C149.677 95.73 149.569 95.994 149.353 96.21C149.149 96.426 148.897 96.534 148.597 96.534ZM149.389 98.136V108H147.751V98.136H149.389ZM156.987 97.956C158.187 97.956 159.159 98.322 159.903 99.054C160.647 99.774 161.019 100.818 161.019 102.186V108H159.399V102.42C159.399 101.436 159.153 100.686 158.661 100.17C158.169 99.642 157.497 99.378 156.645 99.378C155.781 99.378 155.091 99.648 154.575 100.188C154.071 100.728 153.819 101.514 153.819 102.546V108H152.181V98.136H153.819V99.54C154.143 99.036 154.581 98.646 155.133 98.37C155.697 98.094 156.315 97.956 156.987 97.956ZM167.763 97.974C168.615 97.974 169.359 98.16 169.995 98.532C170.643 98.904 171.123 99.372 171.435 99.936V98.136H173.091V108.216C173.091 109.116 172.899 109.914 172.515 110.61C172.131 111.318 171.579 111.87 170.859 112.266C170.151 112.662 169.323 112.86 168.375 112.86C167.079 112.86 165.999 112.554 165.135 111.942C164.271 111.33 163.761 110.496 163.605 109.44H165.225C165.405 110.04 165.777 110.52 166.341 110.88C166.905 111.252 167.583 111.438 168.375 111.438C169.275 111.438 170.007 111.156 170.571 110.592C171.147 110.028 171.435 109.236 171.435 108.216V106.146C171.111 106.722 170.631 107.202 169.995 107.586C169.359 107.97 168.615 108.162 167.763 108.162C166.887 108.162 166.089 107.946 165.369 107.514C164.661 107.082 164.103 106.476 163.695 105.696C163.287 104.916 163.083 104.028 163.083 103.032C163.083 102.024 163.287 101.142 163.695 100.386C164.103 99.618 164.661 99.024 165.369 98.604C166.089 98.184 166.887 97.974 167.763 97.974ZM171.435 103.05C171.435 102.306 171.285 101.658 170.985 101.106C170.685 100.554 170.277 100.134 169.761 99.846C169.257 99.546 168.699 99.396 168.087 99.396C167.475 99.396 166.917 99.54 166.413 99.828C165.909 100.116 165.507 100.536 165.207 101.088C164.907 101.64 164.757 102.288 164.757 103.032C164.757 103.788 164.907 104.448 165.207 105.012C165.507 105.564 165.909 105.99 166.413 106.29C166.917 106.578 167.475 106.722 168.087 106.722C168.699 106.722 169.257 106.578 169.761 106.29C170.277 105.99 170.685 105.564 170.985 105.012C171.285 104.448 171.435 103.794 171.435 103.05ZM182.655 99.486V105.3C182.655 105.78 182.757 106.122 182.961 106.326C183.165 106.518 183.519 106.614 184.023 106.614H185.229V108H183.753C182.841 108 182.157 107.79 181.701 107.37C181.245 106.95 181.017 106.26 181.017 105.3V99.486H179.739V98.136H181.017V95.652H182.655V98.136H185.229V99.486H182.655ZM191.516 108.162C190.592 108.162 189.752 107.952 188.996 107.532C188.252 107.112 187.664 106.518 187.232 105.75C186.812 104.97 186.602 104.07 186.602 103.05C186.602 102.042 186.818 101.154 187.25 100.386C187.694 99.606 188.294 99.012 189.05 98.604C189.806 98.184 190.652 97.974 191.588 97.974C192.524 97.974 193.37 98.184 194.126 98.604C194.882 99.012 195.476 99.6 195.908 100.368C196.352 101.136 196.574 102.03 196.574 103.05C196.574 104.07 196.346 104.97 195.89 105.75C195.446 106.518 194.84 107.112 194.072 107.532C193.304 107.952 192.452 108.162 191.516 108.162ZM191.516 106.722C192.104 106.722 192.656 106.584 193.172 106.308C193.688 106.032 194.102 105.618 194.414 105.066C194.738 104.514 194.9 103.842 194.9 103.05C194.9 102.258 194.744 101.586 194.432 101.034C194.12 100.482 193.712 100.074 193.208 99.81C192.704 99.534 192.158 99.396 191.57 99.396C190.97 99.396 190.418 99.534 189.914 99.81C189.422 100.074 189.026 100.482 188.726 101.034C188.426 101.586 188.276 102.258 188.276 103.05C188.276 103.854 188.42 104.532 188.708 105.084C189.008 105.636 189.404 106.05 189.896 106.326C190.388 106.59 190.928 106.722 191.516 106.722ZM207.019 108.162C206.263 108.162 205.585 108.036 204.985 107.784C204.385 107.52 203.911 107.16 203.563 106.704C203.215 106.236 203.023 105.702 202.987 105.102H204.679C204.727 105.594 204.955 105.996 205.363 106.308C205.783 106.62 206.329 106.776 207.001 106.776C207.625 106.776 208.117 106.638 208.477 106.362C208.837 106.086 209.017 105.738 209.017 105.318C209.017 104.886 208.825 104.568 208.441 104.364C208.057 104.148 207.463 103.938 206.659 103.734C205.927 103.542 205.327 103.35 204.859 103.158C204.403 102.954 204.007 102.66 203.671 102.276C203.347 101.88 203.185 101.364 203.185 100.728C203.185 100.224 203.335 99.762 203.635 99.342C203.935 98.922 204.361 98.592 204.913 98.352C205.465 98.1 206.095 97.974 206.803 97.974C207.895 97.974 208.777 98.25 209.449 98.802C210.121 99.354 210.481 100.11 210.529 101.07H208.891C208.855 100.554 208.645 100.14 208.261 99.828C207.889 99.516 207.385 99.36 206.749 99.36C206.161 99.36 205.693 99.486 205.345 99.738C204.997 99.99 204.823 100.32 204.823 100.728C204.823 101.052 204.925 101.322 205.129 101.538C205.345 101.742 205.609 101.91 205.921 102.042C206.245 102.162 206.689 102.3 207.253 102.456C207.961 102.648 208.537 102.84 208.981 103.032C209.425 103.212 209.803 103.488 210.115 103.86C210.439 104.232 210.607 104.718 210.619 105.318C210.619 105.858 210.469 106.344 210.169 106.776C209.869 107.208 209.443 107.55 208.891 107.802C208.351 108.042 207.727 108.162 207.019 108.162ZM214.929 99.486V105.3C214.929 105.78 215.031 106.122 215.235 106.326C215.439 106.518 215.793 106.614 216.297 106.614H217.503V108H216.027C215.115 108 214.431 107.79 213.975 107.37C213.519 106.95 213.291 106.26 213.291 105.3V99.486H212.013V98.136H213.291V95.652H214.929V98.136H217.503V99.486H214.929ZM218.876 103.032C218.876 102.024 219.08 101.142 219.488 100.386C219.896 99.618 220.454 99.024 221.162 98.604C221.882 98.184 222.68 97.974 223.556 97.974C224.42 97.974 225.17 98.16 225.806 98.532C226.442 98.904 226.916 99.372 227.228 99.936V98.136H228.884V108H227.228V106.164C226.904 106.74 226.418 107.22 225.77 107.604C225.134 107.976 224.39 108.162 223.538 108.162C222.662 108.162 221.87 107.946 221.162 107.514C220.454 107.082 219.896 106.476 219.488 105.696C219.08 104.916 218.876 104.028 218.876 103.032ZM227.228 103.05C227.228 102.306 227.078 101.658 226.778 101.106C226.478 100.554 226.07 100.134 225.554 99.846C225.05 99.546 224.492 99.396 223.88 99.396C223.268 99.396 222.71 99.54 222.206 99.828C221.702 100.116 221.3 100.536 221 101.088C220.7 101.64 220.55 102.288 220.55 103.032C220.55 103.788 220.7 104.448 221 105.012C221.3 105.564 221.702 105.99 222.206 106.29C222.71 106.578 223.268 106.722 223.88 106.722C224.492 106.722 225.05 106.578 225.554 106.29C226.07 105.99 226.478 105.564 226.778 105.012C227.078 104.448 227.228 103.794 227.228 103.05ZM233.29 99.738C233.578 99.174 233.986 98.736 234.514 98.424C235.054 98.112 235.708 97.956 236.476 97.956V99.648H236.044C234.208 99.648 233.29 100.644 233.29 102.636V108H231.652V98.136H233.29V99.738ZM240.364 99.486V105.3C240.364 105.78 240.466 106.122 240.67 106.326C240.874 106.518 241.228 106.614 241.732 106.614H242.938V108H241.462C240.55 108 239.866 107.79 239.41 107.37C238.954 106.95 238.726 106.26 238.726 105.3V99.486H237.448V98.136H238.726V95.652H240.364V98.136H242.938V99.486H240.364ZM249.11 103.032C249.11 102.024 249.314 101.142 249.722 100.386C250.13 99.618 250.688 99.024 251.396 98.604C252.116 98.184 252.914 97.974 253.79 97.974C254.654 97.974 255.404 98.16 256.04 98.532C256.676 98.904 257.15 99.372 257.462 99.936V98.136H259.118V108H257.462V106.164C257.138 106.74 256.652 107.22 256.004 107.604C255.368 107.976 254.624 108.162 253.772 108.162C252.896 108.162 252.104 107.946 251.396 107.514C250.688 107.082 250.13 106.476 249.722 105.696C249.314 104.916 249.11 104.028 249.11 103.032ZM257.462 103.05C257.462 102.306 257.312 101.658 257.012 101.106C256.712 100.554 256.304 100.134 255.788 99.846C255.284 99.546 254.726 99.396 254.114 99.396C253.502 99.396 252.944 99.54 252.44 99.828C251.936 100.116 251.534 100.536 251.234 101.088C250.934 101.64 250.784 102.288 250.784 103.032C250.784 103.788 250.934 104.448 251.234 105.012C251.534 105.564 251.936 105.99 252.44 106.29C252.944 106.578 253.502 106.722 254.114 106.722C254.726 106.722 255.284 106.578 255.788 106.29C256.304 105.99 256.712 105.564 257.012 105.012C257.312 104.448 257.462 103.794 257.462 103.05ZM268.323 94.68V108H266.685V94.68H268.323ZM271.961 96.534C271.649 96.534 271.385 96.426 271.169 96.21C270.953 95.994 270.845 95.73 270.845 95.418C270.845 95.106 270.953 94.842 271.169 94.626C271.385 94.41 271.649 94.302 271.961 94.302C272.261 94.302 272.513 94.41 272.717 94.626C272.933 94.842 273.041 95.106 273.041 95.418C273.041 95.73 272.933 95.994 272.717 96.21C272.513 96.426 272.261 96.534 271.961 96.534ZM272.753 98.136V108H271.115V98.136H272.753ZM279.216 106.488L282.276 98.136H284.022L280.152 108H278.244L274.374 98.136H276.138L279.216 106.488ZM294.634 102.69C294.634 103.002 294.616 103.332 294.58 103.68H286.696C286.756 104.652 287.086 105.414 287.686 105.966C288.298 106.506 289.036 106.776 289.9 106.776C290.608 106.776 291.196 106.614 291.664 106.29C292.144 105.954 292.48 105.51 292.672 104.958H294.436C294.172 105.906 293.644 106.68 292.852 107.28C292.06 107.868 291.076 108.162 289.9 108.162C288.964 108.162 288.124 107.952 287.38 107.532C286.648 107.112 286.072 106.518 285.652 105.75C285.232 104.97 285.022 104.07 285.022 103.05C285.022 102.03 285.226 101.136 285.634 100.368C286.042 99.6 286.612 99.012 287.344 98.604C288.088 98.184 288.94 97.974 289.9 97.974C290.836 97.974 291.664 98.178 292.384 98.586C293.104 98.994 293.656 99.558 294.04 100.278C294.436 100.986 294.634 101.79 294.634 102.69ZM292.942 102.348C292.942 101.724 292.804 101.19 292.528 100.746C292.252 100.29 291.874 99.948 291.394 99.72C290.926 99.48 290.404 99.36 289.828 99.36C289 99.36 288.292 99.624 287.704 100.152C287.128 100.68 286.798 101.412 286.714 102.348H292.942ZM300.983 103.05C300.983 102.03 301.187 101.142 301.595 100.386C302.003 99.618 302.567 99.024 303.287 98.604C304.019 98.184 304.853 97.974 305.789 97.974C307.001 97.974 307.997 98.268 308.777 98.856C309.569 99.444 310.091 100.26 310.343 101.304H308.579C308.411 100.704 308.081 100.23 307.589 99.882C307.109 99.534 306.509 99.36 305.789 99.36C304.853 99.36 304.097 99.684 303.521 100.332C302.945 100.968 302.657 101.874 302.657 103.05C302.657 104.238 302.945 105.156 303.521 105.804C304.097 106.452 304.853 106.776 305.789 106.776C306.509 106.776 307.109 106.608 307.589 106.272C308.069 105.936 308.399 105.456 308.579 104.832H310.343C310.079 105.84 309.551 106.65 308.759 107.262C307.967 107.862 306.977 108.162 305.789 108.162C304.853 108.162 304.019 107.952 303.287 107.532C302.567 107.112 302.003 106.518 301.595 105.75C301.187 104.982 300.983 104.082 300.983 103.05ZM317.425 97.956C318.169 97.956 318.841 98.118 319.441 98.442C320.041 98.754 320.509 99.228 320.845 99.864C321.193 100.5 321.367 101.274 321.367 102.186V108H319.747V102.42C319.747 101.436 319.501 100.686 319.009 100.17C318.517 99.642 317.845 99.378 316.993 99.378C316.129 99.378 315.439 99.648 314.923 100.188C314.419 100.728 314.167 101.514 314.167 102.546V108H312.529V94.68H314.167V99.54C314.491 99.036 314.935 98.646 315.499 98.37C316.075 98.094 316.717 97.956 317.425 97.956ZM323.43 103.032C323.43 102.024 323.634 101.142 324.042 100.386C324.45 99.618 325.008 99.024 325.716 98.604C326.436 98.184 327.234 97.974 328.11 97.974C328.974 97.974 329.724 98.16 330.36 98.532C330.996 98.904 331.47 99.372 331.782 99.936V98.136H333.438V108H331.782V106.164C331.458 106.74 330.972 107.22 330.324 107.604C329.688 107.976 328.944 108.162 328.092 108.162C327.216 108.162 326.424 107.946 325.716 107.514C325.008 107.082 324.45 106.476 324.042 105.696C323.634 104.916 323.43 104.028 323.43 103.032ZM331.782 103.05C331.782 102.306 331.632 101.658 331.332 101.106C331.032 100.554 330.624 100.134 330.108 99.846C329.604 99.546 329.046 99.396 328.434 99.396C327.822 99.396 327.264 99.54 326.76 99.828C326.256 100.116 325.854 100.536 325.554 101.088C325.254 101.64 325.104 102.288 325.104 103.032C325.104 103.788 325.254 104.448 325.554 105.012C325.854 105.564 326.256 105.99 326.76 106.29C327.264 106.578 327.822 106.722 328.434 106.722C329.046 106.722 329.604 106.578 330.108 106.29C330.624 105.99 331.032 105.564 331.332 105.012C331.632 104.448 331.782 103.794 331.782 103.05ZM338.204 99.486V105.3C338.204 105.78 338.306 106.122 338.51 106.326C338.714 106.518 339.068 106.614 339.572 106.614H340.778V108H339.302C338.39 108 337.706 107.79 337.25 107.37C336.794 106.95 336.566 106.26 336.566 105.3V99.486H335.288V98.136H336.566V95.652H338.204V98.136H340.778V99.486H338.204ZM344.887 95.454L344.689 104.454H343.321L343.123 95.454H344.887ZM344.077 108.108C343.765 108.108 343.501 108 343.285 107.784C343.069 107.568 342.961 107.304 342.961 106.992C342.961 106.68 343.069 106.416 343.285 106.2C343.501 105.984 343.765 105.876 344.077 105.876C344.377 105.876 344.629 105.984 344.833 106.2C345.049 106.416 345.157 106.68 345.157 106.992C345.157 107.304 345.049 107.568 344.833 107.784C344.629 108 344.377 108.108 344.077 108.108Z" fill="#C9C9C9"/>
</g>
<defs>
<clipPath id="clip0_580_16508">
<rect width="491" height="647" fill="white"/>
</clipPath>
</defs>
</svg>
