<svg xmlns="http://www.w3.org/2000/svg" xmlns:xlink="http://www.w3.org/1999/xlink" width="112" zoomAndPan="magnify" viewBox="0 0 84 83.999999" height="112" preserveAspectRatio="xMidYMid meet" version="1.0"><defs><clipPath id="75702082aa"><path d="M 30.234375 17.789062 L 70.300781 17.789062 L 70.300781 32.988281 L 30.234375 32.988281 Z M 30.234375 17.789062 " clip-rule="nonzero"/></clipPath><clipPath id="2003631bfa"><path d="M 13.691406 37.402344 L 55.378906 37.402344 L 55.378906 66.199219 L 13.691406 66.199219 Z M 13.691406 37.402344 " clip-rule="nonzero"/></clipPath><clipPath id="1f62ccbe43"><path d="M 29.445312 17.59375 L 70.308594 17.59375 L 70.308594 33.089844 L 29.445312 33.089844 Z M 29.445312 17.59375 " clip-rule="nonzero"/></clipPath></defs><path fill="#292d26" d="M 84 42 C 84 43.375 83.933594 44.746094 83.796875 46.117188 C 83.664062 47.484375 83.460938 48.84375 83.191406 50.195312 C 82.925781 51.542969 82.589844 52.875 82.191406 54.191406 C 81.792969 55.507812 81.328125 56.800781 80.804688 58.074219 C 80.277344 59.34375 79.6875 60.585938 79.039062 61.796875 C 78.390625 63.011719 77.6875 64.191406 76.921875 65.332031 C 76.15625 66.476562 75.339844 67.582031 74.464844 68.644531 C 73.59375 69.707031 72.671875 70.726562 71.699219 71.699219 C 70.726562 72.671875 69.707031 73.59375 68.644531 74.464844 C 67.582031 75.339844 66.476562 76.15625 65.332031 76.921875 C 64.191406 77.6875 63.011719 78.390625 61.796875 79.039062 C 60.585938 79.6875 59.34375 80.277344 58.074219 80.804688 C 56.800781 81.328125 55.507812 81.792969 54.191406 82.191406 C 52.875 82.589844 51.542969 82.925781 50.195312 83.191406 C 48.84375 83.460938 47.484375 83.664062 46.117188 83.796875 C 44.746094 83.933594 43.375 84 42 84 C 40.625 84 39.253906 83.933594 37.882812 83.796875 C 36.515625 83.664062 35.15625 83.460938 33.804688 83.191406 C 32.457031 82.925781 31.125 82.589844 29.808594 82.191406 C 28.492188 81.792969 27.199219 81.328125 25.925781 80.804688 C 24.65625 80.277344 23.414062 79.6875 22.203125 79.039062 C 20.988281 78.390625 19.808594 77.6875 18.667969 76.921875 C 17.523438 76.15625 16.417969 75.339844 15.355469 74.464844 C 14.292969 73.59375 13.273438 72.671875 12.300781 71.699219 C 11.328125 70.726562 10.40625 69.707031 9.535156 68.644531 C 8.660156 67.582031 7.84375 66.476562 7.078125 65.332031 C 6.3125 64.191406 5.609375 63.011719 4.960938 61.796875 C 4.3125 60.585938 3.722656 59.34375 3.195312 58.074219 C 2.671875 56.800781 2.207031 55.507812 1.808594 54.191406 C 1.410156 52.875 1.074219 51.542969 0.808594 50.195312 C 0.539062 48.84375 0.335938 47.484375 0.203125 46.117188 C 0.0664062 44.746094 0 43.375 0 42 C 0 40.625 0.0664062 39.253906 0.203125 37.882812 C 0.335938 36.515625 0.539062 35.15625 0.808594 33.804688 C 1.074219 32.457031 1.410156 31.125 1.808594 29.808594 C 2.207031 28.492188 2.671875 27.199219 3.195312 25.925781 C 3.722656 24.65625 4.3125 23.414062 4.960938 22.203125 C 5.609375 20.988281 6.3125 19.808594 7.078125 18.667969 C 7.84375 17.523438 8.660156 16.417969 9.535156 15.355469 C 10.40625 14.292969 11.328125 13.273438 12.300781 12.300781 C 13.273438 11.328125 14.292969 10.40625 15.355469 9.535156 C 16.417969 8.660156 17.523438 7.84375 18.667969 7.078125 C 19.808594 6.3125 20.988281 5.609375 22.203125 4.960938 C 23.414062 4.3125 24.65625 3.722656 25.925781 3.195312 C 27.199219 2.671875 28.492188 2.207031 29.808594 1.808594 C 31.125 1.410156 32.457031 1.074219 33.804688 0.808594 C 35.15625 0.539062 36.515625 0.335938 37.882812 0.203125 C 39.253906 0.0664062 40.625 0 42 0 C 43.375 0 44.746094 0.0664062 46.117188 0.203125 C 47.484375 0.335938 48.84375 0.539062 50.195312 0.808594 C 51.542969 1.074219 52.875 1.410156 54.191406 1.808594 C 55.507812 2.207031 56.800781 2.671875 58.074219 3.195312 C 59.34375 3.722656 60.585938 4.3125 61.796875 4.960938 C 63.011719 5.609375 64.191406 6.3125 65.332031 7.078125 C 66.476562 7.84375 67.582031 8.660156 68.644531 9.535156 C 69.707031 10.40625 70.726562 11.328125 71.699219 12.300781 C 72.671875 13.273438 73.59375 14.292969 74.464844 15.355469 C 75.339844 16.417969 76.15625 17.523438 76.921875 18.667969 C 77.6875 19.808594 78.390625 20.988281 79.039062 22.203125 C 79.6875 23.414062 80.277344 24.65625 80.804688 25.925781 C 81.328125 27.199219 81.792969 28.492188 82.191406 29.808594 C 82.589844 31.125 82.925781 32.457031 83.191406 33.804688 C 83.460938 35.15625 83.664062 36.515625 83.796875 37.882812 C 83.933594 39.253906 84 40.625 84 42 Z M 84 42 " fill-opacity="1" fill-rule="nonzero"/><g clip-path="url(#75702082aa)"><path fill="#4caf50" d="M 70.300781 23.578125 C 70.300781 28.753906 66.105469 32.949219 60.929688 32.949219 L 30.511719 32.949219 C 30.335938 32.242188 30.246094 31.5 30.246094 30.738281 C 30.246094 25.5625 34.441406 21.367188 39.617188 21.367188 L 60.929688 21.367188 C 63.917969 21.367188 66.582031 19.96875 68.296875 17.789062 C 69.113281 18.828125 69.71875 20.042969 70.039062 21.367188 C 70.210938 22.074219 70.300781 22.816406 70.300781 23.578125 " fill-opacity="1" fill-rule="nonzero"/></g><g clip-path="url(#2003631bfa)"><path fill="#4caf50" d="M 55.371094 43.230469 C 55.371094 46.839844 53.328125 49.976562 50.332031 51.539062 C 49.035156 52.214844 47.5625 52.597656 46 52.597656 L 33.082031 52.597656 C 24.390625 52.597656 17.03125 58.320312 14.570312 66.199219 C 13.996094 64.371094 13.691406 62.425781 13.691406 60.410156 C 13.691406 57.628906 14.273438 54.988281 15.328125 52.597656 C 18.332031 45.777344 25.152344 41.015625 33.082031 41.015625 L 46 41.015625 C 48.988281 41.015625 51.652344 39.617188 53.367188 37.4375 C 54.183594 38.476562 54.785156 39.691406 55.109375 41.015625 C 55.28125 41.726562 55.371094 42.46875 55.371094 43.230469 " fill-opacity="1" fill-rule="nonzero"/></g><g clip-path="url(#1f62ccbe43)"><path fill="#ffffff" d="M 70.308594 23.496094 C 70.308594 28.773438 66.027344 33.050781 60.75 33.050781 L 29.726562 33.050781 C 29.550781 32.332031 29.457031 31.574219 29.457031 30.796875 C 29.457031 25.519531 33.734375 21.242188 39.015625 21.242188 L 60.75 21.242188 C 63.796875 21.242188 66.511719 19.8125 68.261719 17.59375 C 69.097656 18.648438 69.710938 19.890625 70.039062 21.242188 C 70.214844 21.964844 70.308594 22.71875 70.308594 23.496094 " fill-opacity="1" fill-rule="nonzero"/></g></svg>