<svg xmlns="http://www.w3.org/2000/svg" xmlns:xlink="http://www.w3.org/1999/xlink" width="530" zoomAndPan="magnify" viewBox="0 0 397.5 124.499996" height="166" preserveAspectRatio="xMidYMid meet" version="1.0"><defs><g/><clipPath id="769e7a442e"><path d="M 39.355469 12.878906 L 120.664062 12.878906 L 120.664062 43.71875 L 39.355469 43.71875 Z M 39.355469 12.878906 " clip-rule="nonzero"/></clipPath><clipPath id="262271c3b1"><path d="M 5.777344 52.679688 L 90.382812 52.679688 L 90.382812 111.121094 L 5.777344 111.121094 Z M 5.777344 52.679688 " clip-rule="nonzero"/></clipPath><clipPath id="58cafe05bd"><path d="M 36.1875 12.132812 L 120.664062 12.132812 L 120.664062 44.175781 L 36.1875 44.175781 Z M 36.1875 12.132812 " clip-rule="nonzero"/></clipPath></defs><g fill="#ffffff" fill-opacity="1"><g transform="translate(138.132833, 88.558741)"><g><path d="M 45.359375 -25.34375 L 30.796875 -25.34375 L 30.796875 -4.828125 C 30.796875 -2.929688 30.296875 -1.550781 29.296875 -0.6875 C 28.304688 0.164062 26.796875 0.59375 24.765625 0.59375 C 22.691406 0.59375 21.164062 0.164062 20.1875 -0.6875 C 19.207031 -1.550781 18.71875 -2.929688 18.71875 -4.828125 L 18.71875 -25.34375 L 12.96875 -25.34375 L 12.96875 -28.59375 L 18.71875 -28.59375 L 18.71875 -51.765625 C 17.925781 -51.691406 17.019531 -51.550781 16 -51.34375 C 14.988281 -51.132812 13.945312 -50.835938 12.875 -50.453125 C 11.8125 -50.078125 10.757812 -49.628906 9.71875 -49.109375 C 8.6875 -48.597656 7.765625 -48 6.953125 -47.3125 C 6.148438 -46.625 5.492188 -45.851562 4.984375 -45 C 4.484375 -44.15625 4.234375 -43.242188 4.234375 -42.265625 C 4.234375 -41.472656 4.335938 -40.84375 4.546875 -40.375 C 4.753906 -39.90625 4.992188 -39.554688 5.265625 -39.328125 C 5.535156 -39.097656 5.8125 -38.953125 6.09375 -38.890625 C 6.375 -38.828125 6.578125 -38.796875 6.703125 -38.796875 C 7.316406 -38.796875 7.820312 -38.898438 8.21875 -39.109375 C 8.613281 -39.316406 8.96875 -39.535156 9.28125 -39.765625 C 9.601562 -40.003906 9.90625 -40.226562 10.1875 -40.4375 C 10.46875 -40.644531 10.789062 -40.75 11.15625 -40.75 C 11.457031 -40.75 11.769531 -40.679688 12.09375 -40.546875 C 12.425781 -40.410156 12.734375 -40.191406 13.015625 -39.890625 C 13.304688 -39.597656 13.546875 -39.210938 13.734375 -38.734375 C 13.929688 -38.253906 14.03125 -37.671875 14.03125 -36.984375 C 14.03125 -36.003906 13.835938 -35.148438 13.453125 -34.421875 C 13.078125 -33.703125 12.585938 -33.109375 11.984375 -32.640625 C 11.390625 -32.171875 10.703125 -31.820312 9.921875 -31.59375 C 9.148438 -31.363281 8.382812 -31.25 7.625 -31.25 C 6.445312 -31.25 5.382812 -31.445312 4.4375 -31.84375 C 3.488281 -32.25 2.679688 -32.804688 2.015625 -33.515625 C 1.359375 -34.234375 0.859375 -35.066406 0.515625 -36.015625 C 0.171875 -36.960938 0 -37.988281 0 -39.09375 C 0 -41.96875 0.789062 -44.410156 2.375 -46.421875 C 3.957031 -48.429688 6.125 -50.082031 8.875 -51.375 C 11.625 -52.664062 14.828125 -53.601562 18.484375 -54.1875 C 22.148438 -54.78125 26.070312 -55.078125 30.25 -55.078125 C 31.945312 -55.078125 33.710938 -55.054688 35.546875 -55.015625 C 37.390625 -54.984375 39.128906 -54.929688 40.765625 -54.859375 C 42.398438 -54.785156 43.84375 -54.695312 45.09375 -54.59375 C 46.34375 -54.5 47.226562 -54.390625 47.75 -54.265625 C 48.238281 -54.140625 48.628906 -54.003906 48.921875 -53.859375 C 49.222656 -53.710938 49.445312 -53.539062 49.59375 -53.34375 C 49.738281 -53.144531 49.832031 -52.914062 49.875 -52.65625 C 49.925781 -52.40625 49.953125 -52.109375 49.953125 -51.765625 C 49.953125 -51.472656 49.914062 -51.144531 49.84375 -50.78125 C 49.769531 -50.425781 49.660156 -50.09375 49.515625 -49.78125 C 49.367188 -49.476562 49.179688 -49.21875 48.953125 -49 C 48.734375 -48.78125 48.46875 -48.671875 48.15625 -48.671875 C 47.957031 -48.671875 47.738281 -48.753906 47.5 -48.921875 C 47.269531 -49.097656 46.941406 -49.320312 46.515625 -49.59375 C 46.085938 -49.863281 45.507812 -50.144531 44.78125 -50.4375 C 44.050781 -50.726562 43.078125 -51.007812 41.859375 -51.28125 C 40.648438 -51.550781 39.140625 -51.769531 37.328125 -51.9375 C 35.523438 -52.113281 33.347656 -52.203125 30.796875 -52.203125 L 30.796875 -28.59375 L 45.359375 -28.59375 Z M 45.359375 -25.34375 "/></g></g></g><g fill="#ffffff" fill-opacity="1"><g transform="translate(185.882056, 88.558741)"><g><path d="M 15.984375 -3.234375 C 15.984375 -2.921875 15.925781 -2.539062 15.8125 -2.09375 C 15.707031 -1.65625 15.453125 -1.238281 15.046875 -0.84375 C 14.640625 -0.457031 14.050781 -0.125 13.28125 0.15625 C 12.507812 0.445312 11.472656 0.59375 10.171875 0.59375 C 8.867188 0.59375 7.847656 0.4375 7.109375 0.125 C 6.367188 -0.175781 5.820312 -0.535156 5.46875 -0.953125 C 5.113281 -1.367188 4.890625 -1.796875 4.796875 -2.234375 C 4.710938 -2.679688 4.671875 -3.039062 4.671875 -3.3125 L 4.671875 -50.84375 C 4.671875 -51.550781 4.503906 -52.171875 4.171875 -52.703125 C 3.847656 -53.234375 3.289062 -53.5 2.5 -53.5 C 2.082031 -53.5 1.71875 -53.429688 1.40625 -53.296875 C 1.101562 -53.160156 0.78125 -52.957031 0.4375 -52.6875 L -0.296875 -53.5625 C 0.265625 -54.03125 0.890625 -54.488281 1.578125 -54.9375 C 2.265625 -55.394531 3.019531 -55.796875 3.84375 -56.140625 C 4.664062 -56.484375 5.546875 -56.765625 6.484375 -56.984375 C 7.421875 -57.210938 8.40625 -57.328125 9.4375 -57.328125 C 11.03125 -57.328125 12.269531 -57.109375 13.15625 -56.671875 C 14.039062 -56.242188 14.691406 -55.71875 15.109375 -55.09375 C 15.523438 -54.46875 15.773438 -53.804688 15.859375 -53.109375 C 15.941406 -52.410156 15.984375 -51.789062 15.984375 -51.25 Z M 15.984375 -3.234375 "/></g></g></g><g fill="#ffffff" fill-opacity="1"><g transform="translate(206.551279, 88.558741)"><g><path d="M 2.25 -18.859375 C 2.25 -22.078125 2.710938 -24.894531 3.640625 -27.3125 C 4.578125 -29.738281 5.820312 -31.757812 7.375 -33.375 C 8.9375 -35 10.75 -36.21875 12.8125 -37.03125 C 14.882812 -37.84375 17.050781 -38.25 19.3125 -38.25 C 21.5625 -38.25 23.71875 -37.875 25.78125 -37.125 C 27.851562 -36.375 29.664062 -35.222656 31.21875 -33.671875 C 32.78125 -32.128906 34.023438 -30.171875 34.953125 -27.796875 C 35.890625 -25.429688 36.359375 -22.625 36.359375 -19.375 C 36.359375 -16.15625 35.890625 -13.304688 34.953125 -10.828125 C 34.023438 -8.347656 32.78125 -6.257812 31.21875 -4.5625 C 29.664062 -2.875 27.851562 -1.59375 25.78125 -0.71875 C 23.71875 0.15625 21.5625 0.59375 19.3125 0.59375 C 17.050781 0.59375 14.882812 0.179688 12.8125 -0.640625 C 10.75 -1.460938 8.9375 -2.679688 7.375 -4.296875 C 5.820312 -5.921875 4.578125 -7.945312 3.640625 -10.375 C 2.710938 -12.8125 2.25 -15.640625 2.25 -18.859375 Z M 24.90625 -19.234375 C 24.90625 -21.191406 24.835938 -23.085938 24.703125 -24.921875 C 24.566406 -26.753906 24.300781 -28.378906 23.90625 -29.796875 C 23.519531 -31.222656 22.957031 -32.359375 22.21875 -33.203125 C 21.476562 -34.054688 20.507812 -34.484375 19.3125 -34.484375 C 18.101562 -34.484375 17.128906 -34.035156 16.390625 -33.140625 C 15.660156 -32.242188 15.097656 -31.0625 14.703125 -29.59375 C 14.304688 -28.132812 14.046875 -26.472656 13.921875 -24.609375 C 13.804688 -22.742188 13.75 -20.828125 13.75 -18.859375 C 13.75 -16.898438 13.804688 -14.976562 13.921875 -13.09375 C 14.046875 -11.21875 14.304688 -9.539062 14.703125 -8.0625 C 15.097656 -6.59375 15.660156 -5.410156 16.390625 -4.515625 C 17.128906 -3.617188 18.101562 -3.171875 19.3125 -3.171875 C 20.507812 -3.171875 21.476562 -3.632812 22.21875 -4.5625 C 22.957031 -5.5 23.519531 -6.726562 23.90625 -8.25 C 24.300781 -9.769531 24.566406 -11.488281 24.703125 -13.40625 C 24.835938 -15.320312 24.90625 -17.265625 24.90625 -19.234375 Z M 24.90625 -19.234375 "/></g></g></g><g fill="#ffffff" fill-opacity="1"><g transform="translate(245.200149, 88.558741)"><g><path d="M 16.359375 -30.46875 C 17.296875 -31.894531 18.289062 -33.1875 19.34375 -34.34375 C 19.78125 -34.832031 20.253906 -35.304688 20.765625 -35.765625 C 21.285156 -36.234375 21.820312 -36.648438 22.375 -37.015625 C 22.925781 -37.390625 23.5 -37.6875 24.09375 -37.90625 C 24.6875 -38.132812 25.273438 -38.25 25.859375 -38.25 C 27.117188 -38.25 28.101562 -37.875 28.8125 -37.125 C 29.519531 -36.375 29.875 -35.320312 29.875 -33.96875 C 29.875 -33.132812 29.804688 -32.328125 29.671875 -31.546875 C 29.535156 -30.773438 29.273438 -29.835938 28.890625 -28.734375 L 27.859375 -28.734375 C 27.703125 -29.492188 27.351562 -30.125 26.8125 -30.625 C 26.28125 -31.132812 25.5 -31.390625 24.46875 -31.390625 C 23.707031 -31.390625 22.957031 -31.25 22.21875 -30.96875 C 21.476562 -30.6875 20.757812 -30.335938 20.0625 -29.921875 C 19.363281 -29.503906 18.695312 -29.046875 18.0625 -28.546875 C 17.4375 -28.054688 16.867188 -27.59375 16.359375 -27.15625 L 16.359375 -3.234375 C 16.359375 -2.921875 16.304688 -2.539062 16.203125 -2.09375 C 16.109375 -1.65625 15.867188 -1.238281 15.484375 -0.84375 C 15.109375 -0.457031 14.546875 -0.125 13.796875 0.15625 C 13.046875 0.445312 12.019531 0.59375 10.71875 0.59375 C 9.414062 0.59375 8.390625 0.4375 7.640625 0.125 C 6.890625 -0.175781 6.316406 -0.535156 5.921875 -0.953125 C 5.535156 -1.367188 5.289062 -1.796875 5.1875 -2.234375 C 5.09375 -2.679688 5.046875 -3.039062 5.046875 -3.3125 L 5.046875 -31.765625 C 5.046875 -32.472656 4.878906 -33.085938 4.546875 -33.609375 C 4.210938 -34.140625 3.65625 -34.40625 2.875 -34.40625 C 2.457031 -34.40625 2.097656 -34.332031 1.796875 -34.1875 C 1.503906 -34.039062 1.1875 -33.832031 0.84375 -33.5625 L 0.078125 -34.484375 C 0.640625 -34.953125 1.269531 -35.410156 1.96875 -35.859375 C 2.664062 -36.316406 3.421875 -36.71875 4.234375 -37.0625 C 5.046875 -37.40625 5.914062 -37.6875 6.84375 -37.90625 C 7.78125 -38.132812 8.765625 -38.25 9.796875 -38.25 C 10.859375 -38.25 11.757812 -38.101562 12.5 -37.8125 C 13.25 -37.53125 13.863281 -37.160156 14.34375 -36.703125 C 14.820312 -36.253906 15.195312 -35.75 15.46875 -35.1875 C 15.738281 -34.625 15.941406 -34.050781 16.078125 -33.46875 C 16.210938 -32.894531 16.289062 -32.34375 16.3125 -31.8125 C 16.34375 -31.28125 16.359375 -30.832031 16.359375 -30.46875 Z M 16.359375 -30.46875 "/></g></g></g><g fill="#ffffff" fill-opacity="1"><g transform="translate(275.153944, 88.558741)"><g><path d="M 16.4375 -35.296875 C 15.863281 -35.296875 15.328125 -35.222656 14.828125 -35.078125 C 14.328125 -34.929688 13.878906 -34.691406 13.484375 -34.359375 C 13.085938 -34.023438 12.78125 -33.601562 12.5625 -33.09375 C 12.34375 -32.59375 12.234375 -32 12.234375 -31.3125 C 12.234375 -30.351562 12.582031 -29.398438 13.28125 -28.453125 C 13.976562 -27.515625 14.847656 -26.535156 15.890625 -25.515625 C 16.941406 -24.492188 18.070312 -23.4375 19.28125 -22.34375 C 20.5 -21.25 21.628906 -20.09375 22.671875 -18.875 C 23.722656 -17.664062 24.597656 -16.375 25.296875 -15 C 25.992188 -13.625 26.34375 -12.148438 26.34375 -10.578125 C 26.34375 -8.804688 26.039062 -7.234375 25.4375 -5.859375 C 24.832031 -4.484375 23.972656 -3.316406 22.859375 -2.359375 C 21.742188 -1.398438 20.394531 -0.664062 18.8125 -0.15625 C 17.226562 0.34375 15.460938 0.59375 13.515625 0.59375 C 11.828125 0.59375 10.296875 0.351562 8.921875 -0.125 C 7.546875 -0.601562 6.320312 -1.191406 5.25 -1.890625 C 4.175781 -2.597656 3.257812 -3.34375 2.5 -4.125 C 1.738281 -4.914062 1.148438 -5.628906 0.734375 -6.265625 L 2.03125 -7.1875 C 2.34375 -6.8125 2.742188 -6.410156 3.234375 -5.984375 C 3.734375 -5.554688 4.28125 -5.15625 4.875 -4.78125 C 5.476562 -4.414062 6.125 -4.113281 6.8125 -3.875 C 7.5 -3.644531 8.203125 -3.53125 8.921875 -3.53125 C 10.679688 -3.53125 12.125 -3.953125 13.25 -4.796875 C 14.382812 -5.648438 14.953125 -6.910156 14.953125 -8.578125 C 14.953125 -9.515625 14.644531 -10.476562 14.03125 -11.46875 C 13.414062 -12.46875 12.640625 -13.492188 11.703125 -14.546875 C 10.773438 -15.609375 9.769531 -16.703125 8.6875 -17.828125 C 7.613281 -18.960938 6.609375 -20.128906 5.671875 -21.328125 C 4.742188 -22.535156 3.972656 -23.773438 3.359375 -25.046875 C 2.742188 -26.328125 2.4375 -27.65625 2.4375 -29.03125 C 2.4375 -30.582031 2.75 -31.929688 3.375 -33.078125 C 4 -34.234375 4.832031 -35.191406 5.875 -35.953125 C 6.914062 -36.710938 8.101562 -37.285156 9.4375 -37.671875 C 10.78125 -38.054688 12.164062 -38.25 13.59375 -38.25 C 15.238281 -38.25 16.734375 -38.097656 18.078125 -37.796875 C 19.429688 -37.503906 20.59375 -37.054688 21.5625 -36.453125 C 22.539062 -35.847656 23.289062 -35.09375 23.8125 -34.1875 C 24.34375 -33.28125 24.609375 -32.222656 24.609375 -31.015625 C 24.609375 -30.085938 24.300781 -29.28125 23.6875 -28.59375 C 23.070312 -27.90625 22.210938 -27.5625 21.109375 -27.5625 C 20.054688 -27.5625 19.253906 -27.785156 18.703125 -28.234375 C 18.148438 -28.691406 17.875 -29.3125 17.875 -30.09375 C 17.875 -30.613281 18 -31.019531 18.25 -31.3125 C 18.507812 -31.613281 18.796875 -31.851562 19.109375 -32.03125 C 19.429688 -32.21875 19.722656 -32.378906 19.984375 -32.515625 C 20.242188 -32.648438 20.375 -32.828125 20.375 -33.046875 C 20.375 -33.734375 20.003906 -34.28125 19.265625 -34.6875 C 18.523438 -35.09375 17.582031 -35.296875 16.4375 -35.296875 Z M 16.4375 -35.296875 "/></g></g></g><g fill="#ffffff" fill-opacity="1"><g transform="translate(303.744529, 88.558741)"><g><path d="M 14.109375 -16.90625 C 14.109375 -16.125 14.222656 -15.269531 14.453125 -14.34375 C 14.691406 -13.425781 15.03125 -12.5 15.46875 -11.5625 C 15.914062 -10.632812 16.460938 -9.742188 17.109375 -8.890625 C 17.765625 -8.046875 18.515625 -7.289062 19.359375 -6.625 C 20.203125 -5.96875 21.140625 -5.441406 22.171875 -5.046875 C 23.203125 -4.648438 24.332031 -4.453125 25.5625 -4.453125 C 26.425781 -4.453125 27.222656 -4.550781 27.953125 -4.75 C 28.691406 -4.945312 29.378906 -5.21875 30.015625 -5.5625 C 30.660156 -5.90625 31.273438 -6.300781 31.859375 -6.75 C 32.453125 -7.207031 33.046875 -7.695312 33.640625 -8.21875 L 34.5625 -7.328125 C 33.988281 -6.566406 33.257812 -5.734375 32.375 -4.828125 C 31.5 -3.921875 30.429688 -3.066406 29.171875 -2.265625 C 27.921875 -1.460938 26.460938 -0.796875 24.796875 -0.265625 C 23.128906 0.253906 21.222656 0.515625 19.078125 0.515625 C 16.941406 0.515625 14.859375 0.128906 12.828125 -0.640625 C 10.804688 -1.421875 9.007812 -2.582031 7.4375 -4.125 C 5.863281 -5.675781 4.601562 -7.601562 3.65625 -9.90625 C 2.71875 -12.21875 2.25 -14.921875 2.25 -18.015625 C 2.25 -20.253906 2.53125 -22.304688 3.09375 -24.171875 C 3.65625 -26.035156 4.421875 -27.71875 5.390625 -29.21875 C 6.367188 -30.71875 7.5 -32.03125 8.78125 -33.15625 C 10.070312 -34.289062 11.429688 -35.226562 12.859375 -35.96875 C 14.285156 -36.71875 15.738281 -37.285156 17.21875 -37.671875 C 18.707031 -38.054688 20.140625 -38.25 21.515625 -38.25 C 23.335938 -38.25 24.921875 -38.050781 26.265625 -37.65625 C 27.617188 -37.257812 28.742188 -36.726562 29.640625 -36.0625 C 30.535156 -35.40625 31.203125 -34.640625 31.640625 -33.765625 C 32.085938 -32.890625 32.3125 -31.972656 32.3125 -31.015625 C 32.3125 -29.867188 31.976562 -28.832031 31.3125 -27.90625 C 30.65625 -26.988281 29.769531 -26.1875 28.65625 -25.5 Z M 21.515625 -24.390625 C 21.835938 -24.585938 22.101562 -24.773438 22.3125 -24.953125 C 22.519531 -25.140625 22.679688 -25.363281 22.796875 -25.625 C 22.921875 -25.882812 23.015625 -26.203125 23.078125 -26.578125 C 23.140625 -26.960938 23.171875 -27.4375 23.171875 -28 C 23.171875 -28.613281 23.101562 -29.296875 22.96875 -30.046875 C 22.832031 -30.796875 22.601562 -31.5 22.28125 -32.15625 C 21.96875 -32.820312 21.566406 -33.375 21.078125 -33.8125 C 20.585938 -34.257812 20 -34.484375 19.3125 -34.484375 C 18.425781 -34.484375 17.664062 -34.21875 17.03125 -33.6875 C 16.40625 -33.164062 15.890625 -32.484375 15.484375 -31.640625 C 15.085938 -30.804688 14.769531 -29.851562 14.53125 -28.78125 C 14.300781 -27.71875 14.125 -26.644531 14 -25.5625 C 13.875 -24.488281 13.800781 -23.453125 13.78125 -22.453125 C 13.757812 -21.460938 13.75 -20.625 13.75 -19.9375 Z M 21.515625 -24.390625 "/></g></g></g><g fill="#ffffff" fill-opacity="1"><g transform="translate(338.672201, 88.558741)"><g><path d="M 26.265625 -18.34375 C 26.265625 -21.4375 26.125 -23.910156 25.84375 -25.765625 C 25.5625 -27.617188 25.1875 -29.03125 24.71875 -30 C 24.25 -30.976562 23.734375 -31.617188 23.171875 -31.921875 C 22.609375 -32.234375 22.03125 -32.390625 21.4375 -32.390625 C 20.726562 -32.390625 20.097656 -32.195312 19.546875 -31.8125 C 18.992188 -31.4375 18.515625 -31 18.109375 -30.5 C 17.703125 -30.007812 17.359375 -29.519531 17.078125 -29.03125 C 16.796875 -28.539062 16.554688 -28.171875 16.359375 -27.921875 L 16.359375 -3.3125 C 16.359375 -3 16.304688 -2.613281 16.203125 -2.15625 C 16.109375 -1.695312 15.867188 -1.265625 15.484375 -0.859375 C 15.109375 -0.460938 14.546875 -0.125 13.796875 0.15625 C 13.046875 0.445312 12.019531 0.59375 10.71875 0.59375 C 9.414062 0.59375 8.390625 0.4375 7.640625 0.125 C 6.890625 -0.175781 6.316406 -0.535156 5.921875 -0.953125 C 5.535156 -1.367188 5.289062 -1.796875 5.1875 -2.234375 C 5.09375 -2.679688 5.046875 -3.039062 5.046875 -3.3125 L 5.046875 -31.765625 C 5.046875 -32.472656 4.878906 -33.085938 4.546875 -33.609375 C 4.210938 -34.140625 3.65625 -34.40625 2.875 -34.40625 C 2.457031 -34.40625 2.097656 -34.332031 1.796875 -34.1875 C 1.503906 -34.039062 1.1875 -33.832031 0.84375 -33.5625 L 0.078125 -34.484375 C 0.640625 -34.953125 1.269531 -35.410156 1.96875 -35.859375 C 2.664062 -36.316406 3.421875 -36.71875 4.234375 -37.0625 C 5.046875 -37.40625 5.914062 -37.6875 6.84375 -37.90625 C 7.78125 -38.132812 8.765625 -38.25 9.796875 -38.25 C 11.390625 -38.25 12.628906 -37.984375 13.515625 -37.453125 C 14.398438 -36.921875 15.050781 -36.285156 15.46875 -35.546875 C 15.882812 -34.816406 16.132812 -34.050781 16.21875 -33.25 C 16.3125 -32.445312 16.359375 -31.78125 16.359375 -31.25 C 17.265625 -32.539062 18.296875 -33.707031 19.453125 -34.75 C 19.921875 -35.1875 20.441406 -35.613281 21.015625 -36.03125 C 21.597656 -36.445312 22.210938 -36.820312 22.859375 -37.15625 C 23.515625 -37.488281 24.203125 -37.753906 24.921875 -37.953125 C 25.648438 -38.148438 26.394531 -38.25 27.15625 -38.25 C 28.820312 -38.25 30.300781 -37.925781 31.59375 -37.28125 C 32.882812 -36.644531 33.96875 -35.578125 34.84375 -34.078125 C 35.726562 -32.578125 36.40625 -30.59375 36.875 -28.125 C 37.34375 -25.65625 37.578125 -22.59375 37.578125 -18.9375 C 37.578125 -15.375 37.253906 -12.273438 36.609375 -9.640625 C 35.972656 -7.015625 35.140625 -4.78125 34.109375 -2.9375 C 33.078125 -1.101562 31.910156 0.394531 30.609375 1.5625 C 29.304688 2.726562 27.992188 3.644531 26.671875 4.3125 C 25.347656 4.976562 24.078125 5.4375 22.859375 5.6875 C 21.640625 5.945312 20.585938 6.085938 19.703125 6.109375 L 19.3125 4.609375 C 20.039062 4.429688 20.71875 4.15625 21.34375 3.78125 C 21.976562 3.414062 22.550781 2.878906 23.0625 2.171875 C 23.582031 1.460938 24.035156 0.5625 24.421875 -0.53125 C 24.816406 -1.625 25.15625 -2.992188 25.4375 -4.640625 C 25.71875 -6.285156 25.925781 -8.234375 26.0625 -10.484375 C 26.195312 -12.734375 26.265625 -15.351562 26.265625 -18.34375 Z M 26.265625 -18.34375 "/></g></g></g><g clip-path="url(#769e7a442e)"><path fill="#4caf50" d="M 120.664062 24.628906 C 120.664062 35.132812 112.152344 43.644531 101.648438 43.644531 L 39.914062 43.644531 C 39.5625 42.207031 39.378906 40.703125 39.378906 39.15625 C 39.378906 28.652344 47.894531 20.140625 58.394531 20.140625 L 101.648438 20.140625 C 107.710938 20.140625 113.117188 17.300781 116.597656 12.878906 C 118.257812 14.984375 119.480469 17.449219 120.128906 20.140625 C 120.480469 21.578125 120.664062 23.082031 120.664062 24.628906 " fill-opacity="1" fill-rule="nonzero"/></g><g clip-path="url(#262271c3b1)"><path fill="#4caf50" d="M 90.367188 64.503906 C 90.367188 71.835938 86.21875 78.199219 80.140625 81.367188 C 77.507812 82.742188 74.519531 83.519531 71.347656 83.519531 L 45.132812 83.519531 C 27.492188 83.519531 12.5625 95.125 7.5625 111.121094 C 6.402344 107.410156 5.777344 103.460938 5.777344 99.371094 C 5.777344 93.730469 6.964844 88.367188 9.101562 83.519531 C 15.199219 69.679688 29.039062 60.015625 45.132812 60.015625 L 71.347656 60.015625 C 77.414062 60.015625 82.816406 57.175781 86.296875 52.753906 C 87.957031 54.859375 89.179688 57.324219 89.832031 60.015625 C 90.179688 61.453125 90.367188 62.957031 90.367188 64.503906 " fill-opacity="1" fill-rule="nonzero"/></g><g clip-path="url(#58cafe05bd)"><path fill="#ffffff" d="M 120.664062 24.339844 C 120.664062 35.25 111.816406 44.09375 100.90625 44.09375 L 36.765625 44.09375 C 36.402344 42.601562 36.210938 41.039062 36.210938 39.433594 C 36.210938 28.519531 45.054688 19.675781 55.96875 19.675781 L 100.90625 19.675781 C 107.207031 19.675781 112.820312 16.726562 116.4375 12.132812 C 118.160156 14.320312 119.433594 16.878906 120.109375 19.675781 C 120.472656 21.167969 120.664062 22.730469 120.664062 24.339844 " fill-opacity="1" fill-rule="nonzero"/></g></svg>